<?xml version="1.0" encoding="UTF-8"?>
<svg id="Layer_1" data-name="Layer 1" xmlns="http://www.w3.org/2000/svg" xmlns:xlink="http://www.w3.org/1999/xlink" viewBox="0 0 841.89 595.276">
  <defs>
    <style>
      .cls-1 {
        fill: #feee30;
      }

      .cls-2 {
        fill: #939393;
      }

      .cls-3 {
        fill: #6d2016;
      }

      .cls-4 {
        fill: url(#radial-gradient);
      }

      .cls-5 {
        fill: #f7ed4d;
      }

      .cls-6 {
        fill: #6fc387;
      }

      .cls-7 {
        fill: #3e2769;
      }

      .cls-8 {
        fill: #4db2e5;
      }

      .cls-9 {
        fill: #19726b;
      }

      .cls-10 {
        fill: #feda37;
      }

      .cls-11 {
        fill: none;
        stroke: #fff;
        stroke-miterlimit: 10;
        stroke-width: .5px;
      }

      .cls-12, .cls-13 {
        fill: #fff;
      }

      .cls-14 {
        fill: #a51e22;
      }

      .cls-15 {
        fill: #8e509f;
      }

      .cls-13 {
        font-family: Hyperspace, Hyperspace;
        font-size: 24px;
      }

      .cls-16 {
        fill: #b0782b;
      }

      .cls-17 {
        fill: #9aca3c;
      }

      .cls-18 {
        fill: #bfbfbf;
      }

      .cls-19 {
        fill: #939035;
      }

      .cls-20 {
        fill: #dfad26;
      }
    </style>
    <radialGradient id="radial-gradient" cx="420.945" cy="297.638" fx="420.945" fy="297.638" r="401.364" gradientUnits="userSpaceOnUse">
      <stop offset="0" stop-color="#1d3665"/>
      <stop offset=".078" stop-color="#1c2f59"/>
      <stop offset=".274" stop-color="#1a2241"/>
      <stop offset=".483" stop-color="#191931"/>
      <stop offset=".712" stop-color="#181327"/>
      <stop offset="1" stop-color="#181224"/>
    </radialGradient>
  </defs>
  <rect class="cls-4" x="-42.1" y="-30.655" width="926.09" height="656.586"/>
  <g>
    <text class="cls-13" transform="translate(362.351 374.627)"><tspan x="0" y="0">1 PLayer</tspan></text>
    <text class="cls-13" transform="translate(355.027 412.071)"><tspan x="0" y="0">2 PLayers</tspan></text>
    <text class="cls-13" transform="translate(362.351 449.93)"><tspan x="0" y="0">Settings</tspan></text>
    <text class="cls-13" transform="translate(391.648 487.741)"><tspan x="0" y="0">Quit</tspan></text>
  </g>
  <g>
    <path class="cls-18" d="M857.884-150.461s13.291,5.316,47.848,5.649c0,0,20.933-.665,33.56,15.949,0,0,18.238,30.959,33.892,38.212,10.692,4.954,22.595,15.285,19.604,42.864,0,0-2.873,10.991.273,21.266,5.375,17.553,4.047,57.484-13.896,72.104,0,0-15.949,11.63-32.895,37.88,0,0-12.959,21.93-65.791,29.24,0,0-32.563,5.649-55.822-5.649,0,0-40.538-31.234-45.854-31.566,0,0-24.256-14.288-28.243-25.585,0,0-5.981-16.614-4.652-29.905,0,0-2.326-14.288-10.965-31.899,0,0-16.946-35.221,31.566-101.344,0,0,7.642-5.649,15.285-5.649,0,0,4.984.665,12.959-7.642,0,0,9.636-9.636,13.291-10.965,0,0,30.902-15.285,49.841-12.959Z"/>
    <path class="cls-2" d="M778.345,30.339s-5.856,7.352.872,13.083c0,0,5.856,7.85,16.946,10.342,0,0,3.489,1.495,12.336-5.856,0,0,6.604-5.607,12.959-5.794,0,0,16.198-1.807,17.071-5.919,0,0,7.725-9.47,0-25.544,0,0-3.863-7.476-12.585-8.847,0,0-9.146-5.607-16.971,2.617,0,0-11.438,15.575-16.049,18.192,0,0-3.24,3.364-10.093,4.86,0,0-2.118,1.121-4.486,2.866Z"/>
    <path class="cls-2" d="M839.941,76.566s-8.141-9.138,0-17.611c0,0,4.984-4.32,14.454-.997,0,0,5.15,2.492,9.968,2.16,0,0,4.652.831,4.818,5.15v9.636s-2.492,8.307-11.962,10.134c0,0-8.307,2.492-17.278-8.473Z"/>
  </g>
  <g>
    <path class="cls-14" d="M64.912,475.535s12.262-5.968,17.985-3.515c0,0,4.006,1.289,14.306,1.462,0,0,7.357.01,10.791,5.569l5.232,7.93s1.635,2.861,6.376,4.741c0,0,2.589,1.117,5.041,7.058,0,0,2.016,5.886.545,7.194,0,0-1.471,1.744.109,6.485,0,0,2.125,17.658-4.687,23.762,0,0-3.978,2.616-7.739,8.393,0,0-4.632,8.556-14.388,11.336,0,0-18.911,6.322-29.648-.49,0,0-7.085-4.796-7.575-5.559,0,0-2.779-2.616-10.137-6.54,0,0-5.613-3.379-6.431-9.973,0,0-.436-9.156-3.869-15.968,0,0-3.27-7.684,1.144-17.494,0,0,5.613-17.494,13.298-17.985,0,0,2.125,1.035,9.646-6.404Z"/>
    <path class="cls-3" d="M55.811,481.976s1.601,7.579,9.885,9.051c0,0,6.267.218,7.303,5.995,0,0,2.234,7.793,8.611,7.357,0,0,4.85,1.035,9.81-6.104,0,0,2.561-6.104,9.81-4.687,0,0,7.965,1.809,13.847-4.546,0,0-1.176-.782-7.082-9.992,0,0-2.608-5.123-10.791-5.569,0,0-9.681-.045-14.306-1.462,0,0-4.149-2.834-17.985,3.515,0,0-5.935,5.91-9.101,6.441Z"/>
    <path class="cls-3" d="M52.37,493.629c-.908.686-1.635,2.725-.286,6.499,0,0,.45,1.199.586,3.284,0,0,.763,5.368,6.199,5.818,0,0,1.185-.123,2.861,1.39,0,0,5.477,2.493,7.684-2.452,0,0,2.085-3.515-1.635-8.502,0,0-2.248-3.188-4.578-3.474,0,0-3.598-8.027-10.832-2.561Z"/>
    <path class="cls-3" d="M39.976,506.481s3.463,4.363,9.309,5.344c0,0,7.569,1.376,10.893,8.625,0,0,1.58,5.014,11.99,3.433,0,0,8.393-.436,9.919,7.139,0,0,1.853,5.177-4.905,8.447,0,0-3.542.708-3.488,8.502,0,0,.667,4.652-2.773,8.607,0,0-2.037-.636-9.66-6.679,0,0-2.568-2.623-10.137-6.54,0,0-5.509-3.07-6.431-9.973,0,0-.225-8.454-3.869-15.968,0,0-1.865-4.169-.847-10.937Z"/>
    <path class="cls-3" d="M121.778,493.689s2.048,6.279-11.835,11.828c0,0-14.715,4.414-14.17,11.227,0,0-.545,2.725,3.76,6.104,0,0,.872,1.689,2.888,2.016,0,0,4.196,1.308,3.597,5.559,0,0-1.084,9.755,2.81,11.499,0,0,1.809,1.267,3.199,1.226,0,0,1.232.82.845,1.465s3.27-5.47,7.739-8.393c0,0,6.349-4.537,4.687-23.762,0,0-1.471-4.21-.109-6.485,0,0,1.437-7.484-3.411-12.285Z"/>
    <path class="cls-3" d="M83.49,543.54s-5.15,5.504.327,10.382c0,0,7.412,4.932,14.061-.245,0,0,5.859-4.632-2.18-14.361,0,0-3.27-2.725-7.03-.627,0,0-3.243,2.398-3.27,3.433,0,0-1.526.681-1.907,1.417Z"/>
  </g>
  <g>
    <path class="cls-8" d="M675.719,494.021s5.673-4.602,6.526-4.602c0,0,2.558-4.46,8.657-1.705,0,0,9.248.459,13.052,5.509,0,0,6.46,2.164,5.739,9.74,0,0,1.443,4.427-.59,11.215,0,0,1.246,2.656-1.738,3.804,0,0-3.542,8.166-14.527,9.641,0,0-2.722,1.771-6.362,0,0,0-14.56-3.673-15.905-17.02,0,0-2.623-3.804.459-7.739,0,0,0-1.738,1.049-3.181,0,0-.623-4.143,3.64-5.662Z"/>
    <path class="cls-1" d="M679.216,496.639c-.84.95-1.586,3.057-.574,3.738.853.574,2.374-1.231,3.214-2.181s1.951-2.64,1.082-3.247c-.664-.463-2.882.739-3.722,1.689Z"/>
    <path class="cls-1" d="M685.464,501.006c.331.572,2.474-.116,3.2-.401,1.923-.754,2.492-1.847,2.162-2.419s-2.665-.527-3.706.049c-.908.503-1.987,2.199-1.656,2.771Z"/>
    <path class="cls-1" d="M686.857,493.889c0-.163.656-2.263,3.165-2.263,2.082,0,2.935,2.067,2.935,2.23s-1.574.344-3.05.344-3.05-.149-3.05-.312Z"/>
    <path class="cls-1" d="M702.287,493.988c-.626.798-2.569.105-3.624-.721s-3.298-2.317-2.673-3.115,3.192.173,4.247,1,2.675,2.038,2.05,2.837Z"/>
    <path class="cls-1" d="M698.876,498.12c.616,1.067,1.421,3.495.574,3.984s-2.204-1.442-2.82-2.509c-.616-1.067-1.995-3.233-1.148-3.722s2.778,1.18,3.394,2.246Z"/>
    <path class="cls-1" d="M704.648,501.656c0,1.023-.142,2.673-.995,2.744-.784.065-1.454-1.524-1.454-2.547s-.122-2.558.481-2.558c.984,0,1.968,1.338,1.968,2.361Z"/>
    <path class="cls-1" d="M703.751,509.98c-1.343,2.097-2.536,4.165-1.989,5.422.347.797,4.158-1.562,5.05-3.323,1.64-3.236.06-6.777-.809-6.777-1.64,0-1.355,3.279-2.252,4.678Z"/>
    <path class="cls-1" d="M695.946,504.957c0,1.257-.328,2.655-1.268,2.655-1.071,0-1.465-1.21-1.465-2.467s.109-3.14.902-3.14c1.099,0,1.831,1.694,1.831,2.951Z"/>
    <path class="cls-1" d="M688.153,507.925c.534.754,1.82,2.171.918,2.809s-2.828-.58-3.361-1.334-1.623-2.69-.721-3.329,2.631,1.099,3.165,1.853Z"/>
    <path class="cls-1" d="M679.003,505.105c-.082,1.886.959,2.328,1.131,2.328s1.484-.18,1.476-1.984c-.009-1.888-.713-2.591-.885-2.591s-1.646.508-1.722,2.246Z"/>
    <path class="cls-1" d="M679.9,512.347c.81,1.404,1.822,3.72,1.202,4.078s-2.452-1.456-3.262-2.859-1.445-3.943-.826-4.301,2.075,1.679,2.886,3.083Z"/>
    <path class="cls-1" d="M693.066,514.227c0,.045.186,2.044-4.881,2.192-4.822.14-5.362-2.135-5.362-2.181s.164-1.804,5.247-1.722c4.723.076,4.995,1.665,4.995,1.711Z"/>
    <path class="cls-1" d="M686.852,524.797c-.575.996-4.469.266-5.99-.612s-4.672-3.311-4.097-4.307,3.668.783,5.19,1.662,5.472,2.261,4.897,3.257Z"/>
    <path class="cls-1" d="M675.855,515.538c.363.497.409,2.191.038,2.361-.607.279-1.377.131-2.05-.787-.841-1.149-.279-2.394.044-2.644s1.334.2,1.968,1.07Z"/>
    <path class="cls-1" d="M695.034,519.429c.314.131.427.518.227.793-.461.631-1.649,1.675-4.561,1.973-2.362.242-3.513-.305-4.045-.75-.293-.245-.309-.689-.034-.954.604-.583,2.021-1.518,4.91-1.532,1.94-.009,2.976.25,3.503.469Z"/>
    <path class="cls-1" d="M699.029,519.9c-.844,1.264-5.139,3.127-3.542,4.195s5.343-.854,6.187-2.118,3.376-3.942,1.749-4.963c-1.115-.7-3.55,1.622-4.394,2.886Z"/>
    <path class="cls-1" d="M696.635,511.789c-.665.813-1.333,2.249-.689,2.776s2.406-.28,3.072-1.093,1.268-3.041.798-3.629c-.52-.651-2.516,1.133-3.181,1.946Z"/>
    <path class="cls-1" d="M675.259,526.131c0,1.53-1,3.132-2.82,2.837-.753-.122-2.686-2.103-2.804-2.771-.209-1.184.148-2.771,2.804-2.771.984,0,2.82,2.378,2.82,2.705Z"/>
    <ellipse class="cls-1" cx="705.003" cy="530.361" rx="3.968" ry="3.837"/>
    <ellipse class="cls-1" cx="710.988" cy="523.146" rx="2.017" ry="2.197"/>
    <path class="cls-1" d="M707.829,486.292c.52,1.294-.117,2.335-1.328,2.738-.394.131-2.282-.136-2.722-1.459-.44-1.323.164-2.755,1.181-3.09,1.213-.4,2.717,1.435,2.868,1.811Z"/>
    <path class="cls-1" d="M679.096,483.45c0,2.318-2.516,4.394-4.952,4.394-2.197,0-3.148-2.016-3.148-4.334s1.88-3.968,3.87-3.902c1.641.054,4.23,1.524,4.23,3.842Z"/>
    <path class="cls-1" d="M672.652,500.224c.174.075.376.048.531-.061.906-.639,4.083-3.108,3.35-5.852,0,0,.044-.339-.814-.29,0,0-3.952,1.033-3.64,5.662,0,0,.083.329.573.541Z"/>
    <path class="cls-1" d="M672.448,503.738c.18.654.935,3.739-.067,6.342-.149.386-.51.654-.924.676-.293.015-.629-.01-.888-.153,0,0-2.585-3.963.459-7.739,0,0,.76.005,1.304.649.055.065.092.143.115.226Z"/>
    <path class="cls-1" d="M686.753,526.633s3.629-.94,5.947,0c0,0,1.395.46.137.989,0,0-2.837,1.733-6.362,0,0,0-.396-.843.279-.989Z"/>
    <path class="cls-1" d="M707.763,513.932s-1.712,1.245-1.612,3.368c.012.247.165.467.397.553s.54.166.816.129c0,0,2.793-.782,1.738-3.804,0,0-.399-.552-1.339-.246Z"/>
    <path class="cls-1" d="M703.915,494.518s1.662,5.531,4.482,8.023c0,0,.47.361,1.295.421,0,0,1.164-6.881-5.739-9.74,0,0-.226.724-.038,1.295Z"/>
    <path class="cls-1" d="M682.435,489.503c.901.373,4.826,1.712,8.249-1.574.108-.104.078-.288-.059-.35-1.128-.511-5.458-2.129-8.259,1.668-.064.087-.031.214.069.255Z"/>
  </g>
  <g>
    <ellipse class="cls-10" cx="90.594" cy="82.082" rx="31.607" ry="31.991"/>
    <g>
      <path class="cls-15" d="M59.743,75.101s14.028-2.698,18.14-12.108c.082-.187.183-.365.298-.534.26-.38.628-1.162-.593-1.323h-3.715s-.563.036-.958.467l-5.938,6.508s-.742.806.319.898l1.491-.014c.124-.001.243-.027.357-.075.249-.104.702-.322,1.104-.661l3.081-2.586s2.003-.994.91.83c0,0-1.102,1.433-4.512,3.674-.057.037-.115.068-.177.094-.164.068-.502.187-.945.222l-3.208-.048s-.702.192-.575-.83l.016-1.692s-.06-.679,1.475-2.065c.086-.078.168-.167.236-.26.46-.631,2.49-3.299,5.535-5.575,0,0,.415-.383,2.139-.351l4.58-.044c.43-.004.861.13,1.179.42.547.499,1.054,1.541.163,3.63,0,0-4.707,10.877-20.807,13.607,0,0,.134-1.05.403-2.184Z"/>
      <path class="cls-15" d="M89.15,50.125s-.093,3.202,1.017,5.473c.29.594.488,1.23.513,1.891.052,1.391-.03,3.673-1.008,4.754-.461.51-.83,1.092-1.047,1.744-.837,2.516-2.005,8.168,1.952,13.301.305.396.667.745,1.058,1.056.87.69,2.267,2.37-3.484,3.1-.211.027-.424.062-.632.104-1.08.22-5.252.882-10.24-.763,0,0-10.435-3.828-18.082,4.982,0,0,.17,1.453.354,2.356,0,0,9.233-7.992,16.8-4.365.452.217.936.35,1.432.418,3.843.527,18.902,2.12,17.858-5.471-.126-.916-.606-1.745-1.315-2.34-1.811-1.52-5.6-5.593-2.783-11.308.171-.347.327-.701.44-1.072.371-1.214,1.075-4.014.623-6.579-.14-.794-.459-1.554-.951-2.193-.421-.546-1.096-1.89-1.524-5.119,0,0-.617.012-.979.03Z"/>
      <path class="cls-15" d="M103.365,52.81s-2.954-.019-4.656.034c-.77.024-1.506.301-2.105.785-2.146,1.73-6.356,6.457,2.192,12.244l5.986,4.07s5.028,2.777,8.236-1.437c0,0,4.022-5.794-2.059-8.906l-6.273-3.543s-4.262-1.82-6.273,1.197c0,0-1.915,2.586,2.442,6.512,0,0,3.448,3.112,6.177,2.203,0,0,2.634-1.107-.144-4.145,0,0-.87-1.009-1.637-1.664-.487-.416-1.138-.614-1.764-.478-.554.121-.92.492.241,1.546,0,0,1.622,1.059,1.867,2.586,0,0,.174,1.179-1.454.209,0,0-4.723-2.604-4.388-5.86,0,0,.192-2.873,5.124-.383,0,0,6.537,2.957,7.524,5.944,0,0,.908,3.344-3.908,4.202-1.122.2-2.283.07-3.338-.361-2.759-1.128-8.427-3.936-9.04-8.156,0,0-1.45-4.756,3.926-5.171,0,0,4.43-.173,5.974-.086,0,0-1.434-.827-2.65-1.341Z"/>
      <path class="cls-15" d="M122.158,83.774s-9.463,10.491-19.816,3.29c-.714-.497-1.156-1.301-1.211-2.169-.104-1.668.171-4.443,2.712-6.254.712-.507,1.593-.711,2.465-.644,1.826.141,5.341.215,6.509-1.144,0,0,1.76-1.405,3.708-.421.546.276.986.732,1.255,1.282.581,1.187,1.008,3.5-3.191,5.077,0,0-3.724,2.313-8.944.505-.231-.08-.435-.229-.581-.425-.503-.675-.942-2.213,4.713-2.857,0,0,6.752-.335,3.065,1.03,0,0-3.921,1.898.844,1.08.161-.028.323-.074.473-.138.881-.378,3.722-1.787.335-2.977,0,0-4.31-1.915-10.295,1.245,0,0-3.849,1.964,1.081,4.807,1.147.661,2.464.964,3.787.917,3.335-.12,9.847-.939,10.503-5.46,0,0,.931-6.062-4.111-6.685-.681-.084-1.375.079-1.957.441-1.352.843-4.472,2.383-7.794,1.215,0,0-3.558-.756-4.759,4.911-.086.407-.226.805-.415,1.175-.711,1.393-2.151,5.331,2.732,7.705,0,0,6.153,2.969,11.396.694,0,0,6.033-2.878,7.374-4.575,0,0,.104-1.163.124-1.624Z"/>
      <path class="cls-15" d="M118.396,97.312s-8.117.402-12.177-.084c-.9-.108-1.766-.388-2.558-.828-2.097-1.165-7.693-4.09-10.765-3.937,0,0-2.199-.075-3.44,2.242-.277.516-.405,1.098-.439,1.683-.078,1.344-.694,4.514-4.646,5.96-.59.216-1.134.544-1.598.967-1.389,1.265-3.84,4.126-3.788,8.53,0,0-1.789-.72-2.948-1.361,0,0,1.588-7.772,7.187-10.304,0,0,3.352-.718,3.903-6.105,0,0,1.221-8.164,11.157-3.328,0,0,5.531,3.615,12.426,3.376,0,0,6.576-.162,8.268,2.05,0,0-.384.778-.581,1.14Z"/>
      <path class="cls-15" d="M94.685,113.807s-11.22-8.249.962-16.195c.27-.176.57-.303.883-.379,1.63-.397,6.619-.994,10.086,5.253.225.406.33.866.324,1.329-.026,1.857-.693,6.473-6.573,7.334,0,0-6.101,2.252-6.464-4.414-.021-.387.038-.772.151-1.143.54-1.771,2.525-6.398,7.937-3.242.152.088.289.201.408.33.665.724,2.423,3.143-1.682,5.021,0,0-1.373.383-.096-1.117,0,0,2.271-1.696.427-2.797,0,0-3.752-3.571-4.867,3.154-.056.337-.059.685-.003,1.022.22,1.317,1.313,3.857,6.69.052.58-.41,1.002-1.007,1.207-1.687.507-1.678,1.133-4.811-.979-5.512-.171-.057-.337-.123-.485-.226-.998-.697-5.366-3.395-8.407.458-.161.204-.322.406-.511.582-.91.847-4.053,4.618,2.166,11.999,0,0-.952.148-1.175.176Z"/>
      <path class="cls-15" d="M60.978,93.28s3.004.489,4.249-1.234c0,0,3.32-4.725,7.821-4.725,0,0,10.343-.734,12.705,2.745,0,0,2.49,4.054-4.884,7.087,0,0-3.033.096-2.969,1.947,0,0,.766,3.288-3.352,3.895,0,0-5.633.629-7.86-3.146-.255-.433-.397-.924-.431-1.425-.089-1.295.022-3.966,2.185-5.376.438-.285.854-.598,1.226-.965.788-.78,2.615-2.074,5.998-1.984,0,0,4.788,0,6.416,1.724,0,0,1.628,2.426-3.32,3.703,0,0-2.777.862-3.448,2.554,0,0-.894,1.788-3.799,1.309,0,0-2.362-.351-1.883-2.745,0,0,1.373-2.873,2.777-2.873,0,0,.734.415-.479,1.628,0,0-2.267,2.298.064,2.65,0,0,1.561.501,3.013-1.411.133-.175.271-.344.43-.495.685-.652,2.629-2.378,4.026-2.404,0,0,3.192-.638.287-1.373,0,0-2.203-1.373-6.353-.766,0,0-2.809.255-4.82,4.852,0,0-1.341,2.969,3.128,4.214,0,0,3.671,1.468,4.661-1.309,0,0,.143-3.38,3.903-3.384.585,0,1.163-.143,1.674-.427,1.169-.649,2.885-2.035,2.499-4.458,0,0,.287-1.82-6.097-2.107,0,0-3.926-.351-7.055.575,0,0-2.713,1.085-5.746,4.405,0,0-.877,1.161-3.95.868,0,0-.306-.664-.618-1.549Z"/>
    </g>
  </g>
  <g>
    <path class="cls-6" d="M239.06,317.509s3.016-1.468,4.423-.865c0,0,.985.317,3.518.36,0,0,1.81.002,2.654,1.37l1.287,1.95s.402.704,1.568,1.166c0,0,.637.275,1.24,1.736,0,0,.496,1.448.134,1.769,0,0-.362.429.027,1.595,0,0,.523,4.343-1.153,5.844,0,0-.978.643-1.903,2.064,0,0-1.139,2.104-3.539,2.788,0,0-4.651,1.555-7.292-.121,0,0-1.742-1.18-1.863-1.367,0,0-.684-.643-2.493-1.608,0,0-1.381-.831-1.582-2.453,0,0-.107-2.252-.952-3.927,0,0-.804-1.89.281-4.303,0,0,1.381-4.303,3.271-4.423,0,0,.523.255,2.372-1.575Z"/>
    <path class="cls-9" d="M250.942,320.324s.633,2.3.131,3.466c0,0-.551,1.56-.442,2.225.013.077.012.153,0,.23-.036.219-.125.632-.306.824-.06.063-.119.126-.17.197-.11.154-.291.417-.45.692-.026.046-.055.089-.088.131-.133.168-.5.627-.708.802-.047.04-.092.081-.134.127-.202.223-.775.86-1.106,1.279-.072.091-.134.189-.186.293-.168.334-1.016,1.393-4.95,1.178-.042-.002-.084-.002-.126.001-.218.017-.772.111.237.603,0,0,.526.263,1.479.201.029-.002.058-.003.087-.003.332,0,2.574-.028,3.336-.865,0,0,.684-.76,1.209-1.011.117-.056.231-.118.335-.197.514-.393,1.909-1.601,2.652-3.602.013-.034.023-.067.032-.102.044-.169.166-.697.166-1.341,0,0,.03-.714.905-2.041,0,0,.196-.316.143-1.51,0,0-.311-.342-.475-.411,0,0-1.033-.354-1.568-1.166Z"/>
    <path class="cls-9" d="M233.81,329.801s.928.957,4.141,2.049c.029.01.059.018.089.025.187.038,1.111.286,2.164,1.602,0,0,.697.871,2.56,1.045,0,0,2.426.241,3.096-.335,0,0,.509-.442.71-.429,0,0,.295-.726.827-.846.047-.01.093-.021.138-.037l4.033-1.524c.09-.034.176-.08.253-.137.25-.185.811-.655,1.287-1.446.051-.084.112-.164.187-.227.115-.097.251-.148.15.267,0,0-.342,1.283-1.506,2.034-.044.028-.086.059-.126.094-.371.327-2.467,2.136-3.643,2.282,0,0-.715,2.449-5.61,1.776-.013-.002-.026-.003-.039-.004-.196-.016-2.131-.203-3.171-1.376,0,0-.837-1.048-2.209-1.339-.063-.013-.125-.03-.186-.052-.39-.142-1.923-.717-2.847-1.328,0,0-.153-1.622-.3-2.093Z"/>
    <path class="cls-9" d="M233.374,323.605s1.3,2.725,2.253,3.625c.056.053.105.113.151.175.128.173.462.528,1.09.588,0,0,.536.034,1.401.543,0,0,4.383,1.48,5.978.938,0,0,1.159-.542,1.36-.542,0,0,.476-.188.315.308,0,0-.617,1.146-2.949,1.24,0,0-3.753.02-5.717-1.314,0,0-.677-.369-1.548-.322,0,0-1.066-.034-1.689-.952l-1.169-1.642s-.063-1.303.522-2.645Z"/>
    <path class="cls-9" d="M249.644,320.96c-.009-.104,0-.211.036-.309.054-.144.157-.253.314.185,0,0,.64,1.306,0,2.808-.078.183-.184.355-.313.506-.158.186-.446.575-.805,1.286,0,0-.442.754-1.307,1.287,0,0-.7.448-1.082.875-.098.11-.208.207-.336.281-.527.307-1.929.979-3.518.544,0,0-.986-.354-1.607-.425-.052-.006-.102-.014-.153-.026-.313-.077-1.449-.39-2.01-.976,0,0-.161-.272.112-.369.11-.039.231-.027.338.02.521.226,2.676,1.072,4.587.52,0,0,3.086-.462,4.504-2.393,0,0,.456-.653.835-1.05.217-.227.365-.511.41-.822.056-.385.082-.993-.004-1.941Z"/>
    <path class="cls-9" d="M245.576,316.944l.081,1.696c.006.134.033.267.08.393.094.251.248.741.235,1.24-.008.31-.107.611-.273.872l-.813,1.273c-.045.071-.1.135-.164.189-.118.1-.335.253-.671.38-.055.021-.11.044-.163.07-.238.117-.872.454-1.075.811,0,0-.09.493-.694.462l-2.021-.131s-.726-.091-.78.378c-.011.096.032.191.11.249.278.206,1.13.718,2.722.71,0,0,1.166-.05,1.558-1.045,0,0,.203-.499,1.078-.646.14-.024.273-.075.396-.146.367-.214,1-.742,1.291-1.932l.614-2.465c.04-.159.058-.322.055-.485l-.036-1.808s-.767.004-1.529-.064Z"/>
    <path class="cls-9" d="M244.862,318.558c.002-.064.013-.128.036-.187.058-.15.192-.364.408-.011,0,0,.607.971-.474,2.311-.068.085-.148.161-.234.227-.151.115-.432.361-.629.72,0,0-1.125,1.951-4.455,1.277-.026-.005-.053-.012-.078-.019-.133-.038-.694-.178-1.321.008-.028.008-.055.015-.084.019-.328.053-2.251.295-2.622-1.28-.035-.15-.008-.313.09-.432.113-.138.312-.223.629.105,0,0,1.166,1.226,3.87.854,0,0,2.302-.372,2.825-.342,0,0,.655.052.956-.552.054-.109.121-.211.208-.298.129-.128.325-.308.525-.434,0,0,.303-.179.35-1.967Z"/>
    <path class="cls-9" d="M235.023,320.252s.467.208,1.024-.167c0,0,.348-.389,1.501-.348,0,0,1.595.214,2.533-.865,0,0,.751-.831,1.247-1.106,0,0,.342-.503-.985-.416,0,0-.972.287-1.441.817,0,0-.192.287-.867.261,0,0-.856.726-1.348.655,0,0-.744-.079-1.664,1.168Z"/>
    <path class="cls-9" d="M242.056,317.287s.051-.492.733.054c.256.204.719.431.488,1.243-.037.131-.015.438-.558.583,0,0-.246.015-.392.483,0,0-.603,1.769-2.322,1.196,0,0-.603-.231,0-.794,0,0,.312-.251.965-.191,0,0,.442-.02.854-.633,0,0,.281-.553.452-.724,0,0,.251-.151-.131-.885,0,0-.089-.06-.09-.332Z"/>
  </g>
  <g>
    <path class="cls-16" d="M655.384,223.156s10.92-5.315,16.017-3.131c0,0,3.567,1.148,12.741,1.302,0,0,6.552.009,9.61,4.959l4.659,7.062s1.456,2.548,5.679,4.223c0,0,2.305.995,4.49,6.285,0,0,1.796,5.242.485,6.407,0,0-1.31,1.553.097,5.776,0,0,1.893,15.725-4.174,21.161,0,0-3.543,2.33-6.892,7.474,0,0-4.126,7.62-12.813,10.095,0,0-16.842,5.63-26.403-.437,0,0-6.31-4.271-6.746-4.951,0,0-2.475-2.33-9.028-5.824,0,0-4.999-3.009-5.727-8.882,0,0-.388-8.154-3.446-14.221,0,0-2.912-6.843,1.019-15.58,0,0,4.999-15.58,11.843-16.017,0,0,1.893.922,8.591-5.703Z"/>
    <path class="cls-19" d="M679.498,223.865c-.085-.748,1.42-2.842,2.994-.315l.501,1.213s1.729.155,2.776,1.447c0,0,2.612,1.21,4.851,1.465,0,0,1.365,1.128-2.038,1.656,0,0-3.167.573-5.114-1.593,0,0-3.44.764-3.968-3.874Z"/>
    <path class="cls-19" d="M690.45,237.855l2.384,1.86c.179.14.387.235.61.277.709.135,2.133.208,1.467-1.596-.049-.134-.125-.257-.217-.366-.323-.383-1.184-1.314-2.373-1.908-.166-.083-.349-.129-.534-.141-.581-.037-1.738.06-1.574,1.444.02.168.104.325.238.429Z"/>
    <path class="cls-19" d="M700.166,239.477c.381-.692,1.173-1.602,2.316-.239.171.204.28.458.315.722l.104.775c.01.076.029.148.057.219.26.644,1.662,4.039,2.627,4.675,0,0,.582.922-.728.898,0,0-4.084-.267-4.89-5.975-.052-.37.018-.749.198-1.076Z"/>
    <path class="cls-19" d="M707.931,248.676c-.043-.563-.579-1.468-1.35-1.468-.971,0-1.482.758-1.48,1.377.003.952.71,1.559,1.48,1.559s1.395-.868,1.35-1.468Z"/>
    <path class="cls-19" d="M706.899,255.012c.967.244,2.162.892.919,2.597,0,0-1.869,1.796-4.951,2.184,0,0-.898-.049-.728.971,0,0,.37,3.228-.021,4.951,0,0-.543,3.939.696,5.053.182.163.312.376.41.599.403.913.774,2.782-3.075,2.598,0,0-4.028-.243-2.111-7.28,0,0,.825-1.966.728-7.28,0,0-.481-3.457,6.541-4.456.53-.075,1.072-.068,1.591.063Z"/>
    <path class="cls-19" d="M683.298,236.424c1.349-.161,6.184-.439,5.14,4.041-.088.377-.309.712-.626.933-.422.293-1.103.59-2.005.407-.087-.018-.174.031-.192.118-.106.493-.368,2.044.346,2.849,0,0,2.91,2.125,3.717,3.146.148.188.338.336.554.439.816.389,2.683,1.152,3.55.464.147-.117.239-.287.299-.465.263-.785,1.005-3.038.817-4.458-.068-.512,1.071-1.15,1.919.515.068.133.156.255.268.354.627.558,2.771,2.716,2.054,5.555,0,0-.71,4.168-5.879,4.204,0,0-5.005.237-7.098-3.531,0,0-.643-2.155-3.577-3.867-.152-.089-.292-.196-.414-.323-.688-.718-2.833-3.256-2.315-6.518.019-.119.049-.235.088-.348.208-.602.977-2.475,2.734-3.342.195-.096.407-.149.623-.175Z"/>
    <ellipse class="cls-19" cx="663.596" cy="229.479" rx="1.256" ry="1.037"/>
    <path class="cls-19" d="M654.976,229.61s-.383-1.658,2.134-1.453c.374.03.734.151,1.058.341.718.422,1.902,1.246,1.347,1.827,0,0-.397.794-2.277.756-.098-.002-.197-.009-.294-.022-.494-.065-1.839-.342-1.967-1.45Z"/>
    <path class="cls-19" d="M648.209,231.154c.751-.526,1.612-.895,2.522-1.009,1.135-.142,2.498.045,2.498,1.758,0,0,.157,1.498-1.752,1.876-.169.033-.324.109-.442.235-.499.53-1.708,2.01-.306,2.622,0,0,2.912,1.69,6.018-.284,0,0,.801-.833,3.349-.541,0,0,2.815.51,4.538-3.592,0,0,1.796-1.505,2.5,1.044,0,0,.024,4.344-2.912,5.096,0,0-2.621,1.044-5.023,1.068,0,0-1.955.184-3.962,1.313-.114.064-.235.117-.361.152-1.042.285-5.961,1.403-8.828-1.958-.151-.177-.272-.378-.369-.59-.5-1.095-1.506-4.362,2.531-7.189Z"/>
    <path class="cls-19" d="M639.464,248.518c-.477.527-1.123,1.657.345,2.994,0,0,.248.345,1.539.313.198-.005.396.023.58.097.438.177,1.21.622,1.74,1.664,0,0,.728.971,2.111,5.169,0,0,.218.558,0,3.956,0,0-.315,2.669.898,6.479,0,0,.922,3.495,0,5.363,0,0-1.869,2.111-3.81-.243,0,0-1.577-3.373-2.742-2.257,0,0-1.577,2.645.704,4.441,0,0,2.936,3.397,7.038.898,0,0,4.781-2.233,4.587-6.31,0,0,.097-3.082-.655-4.562,0,0-.867-2.335-.963-4.386-.008-.181-.036-.357-.093-.529-.39-1.181-1.996-6.083-2.006-6.808-.024-1.886-.555-4.949-3.224-6.599,0,0-2.266-1.665-5.466-.12-.221.106-.418.257-.582.439Z"/>
    <path class="cls-19" d="M663.834,258.537s-.698-3.933,4.469-4.278c.231-.015.461.062.637.211.542.459,1.478,1.524-.204,2.393,0,0-.688.321-.996.647-.112.118-.115.303-.019.434.337.461,1.33,1.626,2.729,1.598.115-.002.226-.046.318-.115.403-.299,1.581-1.152,2.29-1.438.161-.065.273-.21.286-.383l.073-1.034c.024-.338.207-.658.511-.809.469-.233,1.285-.264,2.465.984.094.1.166.223.204.355.134.464.316,1.558-.823,1.824,0,0-1.065.283-1.241,1.053-.021.091-.041.183-.082.268-.339.707-2.087,3.997-5.035,3.411,0,0-4.659-.655-5.582-5.12Z"/>
    <path class="cls-19" d="M663.712,288.144s.659-4.756,9.678-6.29c.255-.043.518-.058.776-.047.842.038,2.982.067,4.398-.506,0,0,.764-.377,1.98-.081.227.055.454.098.688.108.55.022,1.591.008,2.617-.3.225-.067.451-.126.684-.158.611-.083,1.73-.136,2.529.403.143.096.283.192.44.263.397.179,1.191.519,1.711.622.384.077.746.23,1.073.446,1.098.728,2.786,2.462.946,5.596-.132.225-.297.433-.488.609-.57.525-1.803,1.313-3.257.123-.36-.295-.632-.68-.829-1.102-.271-.581-.796-1.514-1.437-1.712,0,0-2.293-1.019-2.439-1.492,0,0-2.228-1.856-4.9-.364,0,0-3.375,2.043-6.932,2.681-.358.064-.704.184-1.014.375l-1.715,1.058s1.019,2.876-2.694,2.585c0,0-1.917-.607-1.814-2.815Z"/>
  </g>
  <g>
    <path class="cls-12" d="M103.575,264.758c-.228.697-.454,1.395-.68,2.092,4.436,7.588,8.872,15.175,13.308,22.763-.906.529-1.81,1.061-2.714,1.596-10.44-17.652-20.878-35.304-31.318-52.956,4.954-13.141,10.37-26.252,16.251-39.305,1.052-.556,2.104-1.109,3.158-1.66,14.078,2.56,27.879,5.568,41.385,8.993,8.623,18.607,17.246,37.214,25.869,55.821-.94.436-1.879.874-2.818,1.315-3.735-7.956-7.471-15.912-11.206-23.868-.697-.212-1.394-.423-2.093-.633-16.65,7.871-33.047,16.485-49.144,25.842ZM152.321,234.245c-3.943-8.398-7.885-16.796-11.828-25.194-12.786-3.165-25.834-5.954-39.13-8.343-5.572,12.307-10.729,24.667-15.472,37.056,4.682,8.009,9.365,16.018,14.047,24.027.722.143,1.444.288,2.165.433,16.168-9.399,32.64-18.052,49.365-25.958.283-.674.568-1.348.854-2.022Z"/>
    <path class="cls-12" d="M223.087,195.092c-19.239,6.327-38.256,13.554-56.989,21.68-6.022-13.888-12.043-27.775-18.065-41.663,21.63-9.383,43.614-17.643,65.869-24.78.298.93.596,1.86.895,2.79-20.522,6.582-40.815,14.123-60.81,22.623-.349.679-.697,1.358-1.043,2.037,4.802,11.223,9.603,22.447,14.405,33.67.723.222,1.445.445,2.166.669,18.861-8.015,38.002-15.127,57.361-21.336,4.623,14.414,9.246,28.828,13.868,43.242-19.51,6.257-38.784,13.499-57.747,21.725-.389-.896-.777-1.792-1.166-2.688,17.623-7.645,35.513-14.443,53.612-20.396.337-.625.675-1.249,1.014-1.873-3.785-11.606-7.571-23.211-11.355-34.817-.671-.295-1.342-.589-2.015-.882Z"/>
    <path class="cls-12" d="M231.468,147.997c-.275-.937-.551-1.874-.826-2.811,22.384-6.576,45.016-12.03,67.812-16.361.183.959.365,1.919.547,2.878-10.216,1.941-20.399,4.108-30.541,6.502-.451.608-.901,1.217-1.35,1.826,6.462,27.072,12.925,54.144,19.387,81.216-.992.237-1.983.476-2.974.717-6.595-27.04-13.189-54.08-19.784-81.12-.677-.337-1.356-.674-2.035-1.01-10.124,2.494-20.205,5.215-30.237,8.162Z"/>
    <path class="cls-12" d="M329.886,212.508c-4.768-28.907-9.536-57.813-14.305-86.72,22.873-3.77,45.888-6.417,68.96-7.941.064.974.129,1.949.193,2.923-21.255,1.404-42.46,3.765-63.549,7.083-.494.572-.987,1.145-1.479,1.718,1.928,12.054,3.856,24.108,5.784,36.162.638.393,1.275.786,1.91,1.18,15.049-2.366,30.161-4.216,45.307-5.55.085.973.172,1.946.257,2.918-15.102,1.33-30.169,3.176-45.174,5.536-.46.567-.919,1.134-1.376,1.701,1.928,12.054,3.856,24.108,5.784,36.162.582.401,1.163.804,1.743,1.207,18.653-2.934,37.407-5.022,56.206-6.264.064.974.129,1.949.193,2.923-20.228,1.337-40.405,3.657-60.457,6.962Z"/>
    <path class="cls-12" d="M401.856,116.914c23.096-.963,46.229-.804,69.313.478-.841,15.113-1.681,30.227-2.521,45.34-19.625-1.09-39.288-1.313-58.928-.67,20.073,12.533,39.002,25.971,56.732,40.16-.054.975-.109,1.95-.163,2.925-.506-.028-1.012-.056-1.518-.082-18.008-14.413-37.26-28.047-57.697-40.741.495,13.428.99,26.857,1.486,40.285-1.012.037-2.025.077-3.038.119-1.222-29.271-2.445-58.543-3.667-87.814ZM407.154,119.644c-.558.508-1.116,1.016-1.671,1.525.45,12.199.9,24.397,1.35,36.596.583.467,1.167.935,1.749,1.404,18.444-.633,36.908-.505,55.344.385.568-.481,1.136-.961,1.706-1.441.617-12.172,1.235-24.344,1.852-36.516-.526-.516-1.053-1.03-1.582-1.545-19.569-.946-39.169-1.082-58.748-.408Z"/>
    <path class="cls-12" d="M472.845,205.546c1.934-29.233,3.868-58.466,5.802-87.699,23.073,1.525,46.088,4.172,68.96,7.941-4.768,28.907-9.536,57.813-14.305,86.72-20.052-3.305-40.23-5.626-60.457-6.962ZM483.553,121.125c-.61.445-1.219.891-1.826,1.337-1.844,26.322-3.692,52.644-5.541,78.966.495.525.989,1.05,1.481,1.576,17.245,1.268,34.45,3.248,51.568,5.941.583-.422,1.167-.844,1.752-1.265,4.144-26.04,8.286-52.08,12.426-78.121-.469-.569-.939-1.138-1.41-1.707-19.403-3.052-38.903-5.295-58.449-6.727Z"/>
    <path class="cls-12" d="M564.187,131.704c.183-.959.364-1.919.547-2.878,22.796,4.331,45.428,9.785,67.812,16.361-.275.937-.551,1.874-.826,2.811-10.031-2.947-20.113-5.668-30.237-8.162-.679.335-1.357.672-2.035,1.01-6.248,25.617-12.495,51.234-18.743,76.851.383.596.765,1.192,1.146,1.789,8.954,2.206,17.871,4.612,26.742,7.219-.275.937-.551,1.874-.826,2.811-19.624-5.765-39.466-10.547-59.451-14.344.183-.959.365-1.919.547-2.878,9.036,1.717,18.042,3.633,27.012,5.751.61-.358,1.223-.714,1.834-1.07,6.122-25.647,12.245-51.294,18.367-76.942-.449-.609-.899-1.218-1.35-1.826-10.142-2.394-20.326-4.561-30.541-6.502Z"/>
    <path class="cls-12" d="M691.846,228.869c-13.811,4.654-27.258,9.759-40.323,15.279-9.627-3.621-19.324-6.996-29.079-10.124,8.947-27.898,17.895-55.796,26.842-83.694,11.127,3.569,22.187,7.418,33.168,11.548,7.889,12.357,15.293,24.842,22.211,37.424-4.273,9.856-8.547,19.712-12.82,29.567ZM679.783,164.005c-8.777-3.276-17.604-6.373-26.476-9.29-.706.282-1.41.565-2.114.849-8.158,25.095-16.318,50.189-24.48,75.282.359.631.716,1.261,1.072,1.893,7.806,2.568,15.573,5.294,23.297,8.177.007-.018.014-.037.021-.055,12.439-5.26,25.224-10.144,38.339-14.624,3.82-8.987,7.64-17.975,11.459-26.964.021.009.042.018.062.027-6.625-11.864-13.686-23.638-21.18-35.296Z"/>
    <path class="cls-12" d="M766.975,252.094c-17.91-10.411-36.184-19.923-54.759-28.535,6.365-13.734,12.729-27.468,19.094-41.201,21.448,9.944,42.519,21.011,63.13,33.2-.497.841-.994,1.681-1.491,2.522-19.007-11.241-38.408-21.523-58.135-30.847-.741.19-1.481.381-2.221.573-5.187,11.051-10.374,22.101-15.56,33.151.317.688.633,1.377.947,2.066,18.607,8.797,36.907,18.496,54.836,29.099-7.705,13.029-15.411,26.058-23.116,39.086-18.07-10.686-36.543-20.388-55.346-29.106.411-.886.821-1.772,1.232-2.658,17.474,8.102,34.665,17.05,51.514,26.844.701-.157,1.402-.314,2.104-.469,6.161-10.538,12.322-21.077,18.483-31.615-.236-.704-.474-1.407-.712-2.111Z"/>
  </g>
  <g>
    <path class="cls-5" d="M413.571,287.051c.269-.298,1.417-1.641,1.954-3.46,0,0,0-.894.894-.948,0,0,1.165-.203,1.449-.366,0,0,1.564-.691,2.133-.731,0,0,1.171-.883,2.444-.13.075.044.156.075.242.084.381.038,1.535.125,2.86-.062,0,0,1.375-.257,1.74,1.199,0,0,.63,3.061,1.388,3.623,0,0,.413.163.149.88,0,0-.047.423.044.692,0,0,.071.432.066.574,0,0,.025.315.183.457,0,0,.23.235-.007.868-.011.031-.019.063-.021.096-.008.128.003.475.225,1.159,0,0,.416,1.172-.742,1.808,0,0-1.178.738-1.903,1.558,0,0-.19.745-1.09.88,0,0-.846.522-1.208.661-.026.01-.049.026-.066.049-.071.096-.34.375-1.13.509,0,0-.19,0-.867.528,0,0-.887.826-2.005-.041,0,0-1.212-1.043-2.174-.84,0,0-.318.217-1.07-.799l-.44-.542s-.569-.393-1.036-1.029l-1.07-.698s-.176-.061-.196-.352l-.081-1.199s.027-.014-.081-.156c0,0-.528-.901-1.307-1.639,0,0-.704-.765-.115-1.856,0,0,.59-.566.747-.694.032-.026.061-.055.089-.085Z"/>
    <path class="cls-20" d="M417.53,283.646c.265-.164.84-.479.767-.589-.081-.122-.741.085-1.006.249s-.818.503-.701.649c.108.135.675-.145.94-.309Z"/>
    <path class="cls-20" d="M423.657,282.634c0,.194-.813.239-1.795.217-.909-.02-1.713-.297-1.713-.491s.674-.223,1.725-.142c.906.07,1.783.223,1.783.416Z"/>
    <path class="cls-20" d="M425.219,284.403c0,.299-.582.325-1.287.196-.659-.12-1.195-.483-1.146-.779.042-.251.553-.576,1.233-.542.794.04,1.2.825,1.2,1.124Z"/>
    <path class="cls-20" d="M426.048,283.411c.194.242.43.58.323.667s-.486-.188-.655-.367c-.239-.254-.408-.596-.3-.682s.438.141.632.383Z"/>
    <path class="cls-20" d="M426.956,287.272c-.248.385-.765.423-1.233.102-.433-.298-.858-1.058-.61-1.442s.837-.01,1.314.298.777.658.528,1.043Z"/>
    <path class="cls-20" d="M421.474,287.005c.03.667-.771.842-1.325.935-.656.111-1.846.121-1.846-.438,0-.668,1.058-1.889,1.66-1.818.499.059,1.47.406,1.51,1.321Z"/>
    <path class="cls-20" d="M415.86,285.034c-.483.464-.831,1.145-.572,1.337s.852-.165,1.25-.703.839-1.348.638-1.499c-.235-.177-.803.373-1.316.866Z"/>
    <path class="cls-20" d="M418.657,289.665c.833.926.703,2.163-.167,3.147-.775.877-2,.176-2.822-.76-.822-.936-1.551-2.472-.731-3.217.899-.818,3.088.129,3.72.83Z"/>
    <path class="cls-20" d="M419.911,294.579c0,.243-.335.506-.655.516-.356.012-.632-.194-.632-.437s.169-.559.543-.518c.389.042.743.195.743.439Z"/>
    <path class="cls-20" d="M422.644,294.35c-.104.587-.185,1.014.863.816.36-.068.914-.464.946-1.095.032-.645-.338-1.13-.727-1.116-.413.015-.984.846-1.081,1.395Z"/>
    <path class="cls-20" d="M425.847,291.026c.152.711-.034,2.011-.385,2.054-.306.038-.931-.668-1.124-1.602s.05-1.853.564-1.884c.67-.041.759.565.945,1.432Z"/>
    <path class="cls-20" d="M428.366,289.736c0,.361-.298.893-.486.893s-.393-.381-.393-.862.452-.792.64-.792.239.32.239.762Z"/>
  </g>
  <g>
    <path class="cls-7" d="M428.605,77.375s.665-1.425.19-2.85c0,0-1.222-3.071-.009-5.035,0,0,.928-1.298,1.339-1.33,0,0,.479-.142.028-.736,0,0-.665-2.09,1.306-3.348,0,0,.831-.226.926-1.128,0,0-.107-1.081,1.259-1.757,0,0,1.959-.677,2.007-2.066,0,0,.617-1.84,2.256-2.387,0,0,1.14-.522,2.482-.19,0,0,2.79-5.553,8.11-1.722,0,0,.491.602,1.504.237,0,0,3.467-.823,5.557,1.805,0,0,.317.602,1.108.712,0,0,2.153.269,2.881,2.929,0,0,.016.681,1.14.744,0,0,2.581.475,2.961,4.37,0,0-.127,1.251.918,1.868,0,0,3.879,4.892.269,9.689,0,0,1.496,4.227-2.375,6.721,0,0-.641.285-.57,1.544,0,0-.071,4.488-3.966,3.942,0,0-1.52-.451-1.829,1.567,0,0-.594,4.987-3.871,2.422,0,0-.641-.831-.427-1.567,0,0-.024-.594-.974.285,0,0-1.235,1.092-1.259,5.058,0,0-.237,4.037-3.752,3.918,0,0-2.755.404-4.631-2.375,0,0-1.377-1.829-1.71-5.771l-.261-2.826s-.142-.76-.784.119c0,0-.522.736-.807,2.399,0,0-.594,2.304-2.731,2.446,0,0-.974-.119-1.235-.427,0,0-2.327-.19-3.064-2.422,0,0-.902-2.066,1.164-3.823,0,0,.451-3.159-.356-4.465,0,0-1.686-2.232-2.042-2.494,0,0-1.362-1.536-.752-4.057Z"/>
    <path class="cls-17" d="M433.513,87.654s2.494-.095,3.277.309c0,0,1.33.285.902,2.09,0,0-.285,2.612-2.399,4.037,0,0-.902.57-1.639.546,0,0-2.422-.261-3.064-2.422,0,0-.902-2.09,1.164-3.823,0,0,.997-.727,1.757-.736Z"/>
    <circle class="cls-17" cx="438.552" cy="85.898" r="1.978"/>
    <circle class="cls-17" cx="448.797" cy="72.226" r="1.295"/>
    <circle class="cls-17" cx="454.57" cy="73.082" r="1.876"/>
    <circle class="cls-17" cx="446.017" cy="69.54" r="1.909"/>
    <path class="cls-17" d="M440.091,79.817c0,2.222-2.027,4.103-4.248,4.103s-4.023-1.633-4.023-4.023c0-2.222,1.801-3.761,4.023-3.761s4.248,1.459,4.248,3.681Z"/>
    <path class="cls-17" d="M447.097,82.287c.055,2.035-2.215,3.19-3.982,3.19s-3.244-1.354-3.244-3.19,1.432-3.325,3.2-3.325,3.985,1.806,4.026,3.325Z"/>
    <path class="cls-17" d="M453.897,77.901c0,2.199-2.281,4.623-4.48,4.623s-3.443-3.325-3.341-4.813c.152-2.194,1.724-3.836,3.923-3.836s3.898,1.826,3.898,4.026Z"/>
    <path class="cls-17" d="M437.804,71.957c0,1.647-2.131,4.457-4.536,4.457-2.804,0-4.419-3.717-4.459-4.892-.059-1.745,2.136-3.529,4.49-3.633,2.951-.131,4.505,1.664,4.505,4.069Z"/>
    <path class="cls-17" d="M446.02,74.656c.05,1.603-1.495,3.907-3.75,3.907s-4.524-2.281-4.524-4.536,2.232-4.236,4.191-4.236c2.255,0,4.013,2.611,4.083,4.865Z"/>
    <path class="cls-17" d="M435.811,65.706c0,1.128-.922,1.956-2.05,1.956s-2.509-1.199-2.509-2.327,1.718-1.585,2.517-1.585c1.128,0,2.042.828,2.042,1.956Z"/>
    <path class="cls-17" d="M436.682,62.6c0,.708-1.189.996-1.896.946-.503-.036-1.068-.689-1.068-1.247,0-.708.574-1.282,1.282-1.282s1.682.875,1.682,1.583Z"/>
    <path class="cls-17" d="M443.418,67.353c0,1.772-2.327,2.187-4.1,2.187s-3.209-1.437-3.209-3.209,1.437-3.209,3.209-3.209,4.1,2.459,4.1,4.232Z"/>
    <path class="cls-17" d="M447.926,64.504c0,1.482-1.201,2.684-2.684,2.684s-3.255-2.728-3.255-4.21,1.773-1.157,3.255-1.157,2.684,1.201,2.684,2.684Z"/>
    <path class="cls-17" d="M455.809,67.015c-.112,2.118-1.922,3.787-4.043,3.787s-3.84-1.719-3.84-3.84.046-4.863,2.167-4.863,5.848,2.443,5.717,4.916Z"/>
    <path class="cls-17" d="M462.719,65.519c-.157,1.685-2.152,2.185-3.844,2.185s-3.064-1.68-3.064-3.372,1.372-3.064,3.064-3.064,4.066,1.867,3.844,4.251Z"/>
    <path class="cls-17" d="M464.799,72.226c-.402,1.875-1.558,3.574-3.473,3.473-3.451-.183-5.407-4.493-4.963-5.882.583-1.827,3.045-1.837,4.963-1.837s3.895,2.28,3.473,4.246Z"/>
    <path class="cls-17" d="M462.719,79.134c.166,2.779-3.122,2.949-4.939,2.949s-3.29-1.473-3.29-3.29,1.473-3.29,3.29-3.29,4.798,1.283,4.939,3.63Z"/>
    <path class="cls-17" d="M457.067,84.673c0,1.769-1.434,4.388-3.203,4.388s-3.203-2.619-3.203-4.388,1.434-3.203,3.203-3.203,3.203,1.434,3.203,3.203Z"/>
    <path class="cls-17" d="M461.55,85.09c0,1.132-.738,2.808-1.87,2.808s-2.288-2.264-2.288-3.396,1.14-2.16,2.251-1.943c1.129.22,1.907,1.4,1.907,2.532Z"/>
    <path class="cls-17" d="M447.902,93.334c1.582,1.902.858,4.081-.842,5.317s-4.081.858-5.317-.842-1.046-6.47.3-7.164c1.536-.792,4.514,1.073,5.859,2.69Z"/>
    <path class="cls-17" d="M450.512,87.916c0,1.79-1.451,3.241-3.241,3.241s-5.173-1.156-5.173-2.946,3.383-3.536,5.173-3.536,3.241,1.451,3.241,3.241Z"/>
    <path class="cls-17" d="M457.281,60.868c-.707,1.442-4.754,1.917-6.315,1.09s-2.172-2.823-1.344-4.384,2.78-2.095,4.34-1.267,4.097,2.976,3.319,4.562Z"/>
    <path class="cls-17" d="M444.821,53.799c-1.969,0-3.594,1.453-3.874,3.344-.546-.426-1.245-.674-2.014-.671-1.193.004-3.226,1.312-3.226,3.08s1.433,3.2,3.2,3.2c1.465,0,2.697-.986,3.077-2.329.714.75,1.72,1.219,2.837,1.219,2.166,0,3.921-1.756,3.921-3.921s-1.756-3.921-3.921-3.921Z"/>
  </g>
  <path class="cls-12" d="M225.952,52.732l.342,3.04c.208,1.848,1.667,3.307,3.515,3.515l3.04.342-3.04.342c-1.848.208-3.307,1.667-3.515,3.515l-.342,3.04-.342-3.04c-.208-1.848-1.667-3.307-3.515-3.515l-3.04-.342,3.04-.342c1.848-.208,3.307-1.667,3.515-3.515l.342-3.04Z"/>
  <path class="cls-12" d="M699.154,388.943l.582,5.167c.354,3.141,2.833,5.62,5.974,5.974l5.167.582-5.167.582c-3.141.354-5.62,2.833-5.974,5.974l-.582,5.167-.582-5.167c-.354-3.141-2.833-5.62-5.974-5.974l-5.167-.582,5.167-.582c3.141-.354,5.621-2.833,5.974-5.974l.582-5.167Z"/>
  <path class="cls-12" d="M530.875,18.734l.6,5.329c.365,3.239,2.921,5.796,6.161,6.161l5.329.6-5.329.6c-3.239.365-5.796,2.921-6.161,6.161l-.6,5.329-.6-5.329c-.365-3.239-2.921-5.796-6.161-6.161l-5.329-.6,5.329-.6c3.239-.365,5.796-2.921,6.161-6.161l.6-5.329Z"/>
  <path class="cls-12" d="M330.863,241.268l.367,3.265c.223,1.985,1.79,3.551,3.775,3.775l3.265.367-3.265.367c-1.985.223-3.551,1.79-3.775,3.775l-.367,3.265-.367-3.265c-.223-1.985-1.79-3.551-3.775-3.775l-3.265-.367,3.265-.367c1.985-.223,3.551-1.79,3.775-3.775l.367-3.265Z"/>
  <path class="cls-12" d="M591.951,458.396l.367,3.265c.223,1.985,1.79,3.551,3.775,3.775l3.265.367-3.265.367c-1.985.223-3.551,1.79-3.775,3.775l-.367,3.265-.367-3.265c-.223-1.985-1.79-3.551-3.775-3.775l-3.265-.367,3.265-.367c1.985-.223,3.551-1.79,3.775-3.775l.367-3.265Z"/>
  <path class="cls-12" d="M67.167,323.605l.318,2.822c.193,1.715,1.547,3.069,3.262,3.262l2.822.318-2.822.318c-1.715.193-3.069,1.547-3.262,3.262l-.318,2.822-.318-2.822c-.193-1.715-1.547-3.069-3.262-3.262l-2.822-.318,2.822-.318c1.715-.193,3.069-1.547,3.262-3.262l.318-2.822Z"/>
  <path class="cls-12" d="M279.438,420.595l.583,5.182c.355,3.15,2.841,5.636,5.991,5.991l5.182.583-5.182.583c-3.15.355-5.636,2.841-5.991,5.991l-.583,5.182-.583-5.182c-.355-3.15-2.841-5.636-5.991-5.991l-5.182-.583,5.182-.583c3.15-.355,5.636-2.841,5.991-5.991l.583-5.182Z"/>
  <path class="cls-12" d="M674.351,104.753l.637,5.66c.387,3.441,3.103,6.157,6.544,6.544l5.66.637-5.66.637c-3.441.387-6.157,3.103-6.544,6.544l-.637,5.66-.637-5.66c-.387-3.441-3.103-6.157-6.544-6.544l-5.66-.637,5.66-.637c3.441-.387,6.157-3.103,6.544-6.544l.637-5.66Z"/>
  <g>
    <path class="cls-11" d="M324.59,363.657c0-3.692-9.636-4.221-9.636-4.221l4.48,4.221s5.156,1.289,5.156,0Z"/>
    <path class="cls-11" d="M318.508,362.784l-3.554-3.349s6.827.375,8.988,2.696c-1.725.003-3.738.046-5.434.653Z"/>
    <g>
      <path class="cls-11" d="M316.998,365.488c-.527,0-2.36.954-2.36.954,0,0,1.833.954,2.36.954s.954-.427.954-.954-.427-.954-.954-.954Z"/>
      <path class="cls-11" d="M317.265,365.817c-.345,0-1.546.625-1.546.625,0,0,1.201.625,1.546.625s.625-.28.625-.625-.28-.625-.625-.625Z"/>
      <path class="cls-11" d="M317.486,366.179c-.145,0-.651.263-.651.263,0,0,.506.263.651.263s.263-.118.263-.263-.118-.263-.263-.263Z"/>
    </g>
    <path class="cls-11" d="M324.59,369.229c0,3.692-9.636,4.221-9.636,4.221l4.48-4.221s5.156-1.289,5.156,0Z"/>
    <path class="cls-11" d="M318.508,370.101l-3.554,3.349s6.827-.375,8.988-2.696c-1.725-.003-3.738-.046-5.434-.653Z"/>
    <path class="cls-11" d="M317.731,368.864c1.095-.263,1.931-1.996,1.931-2.421s-.836-2.158-1.931-2.421c0,0,3.744-2.291,8.639-1.457,4.741.807,7.705,3.879,7.705,3.879,0,0-2.964,3.071-7.705,3.879-4.894.833-8.639-1.457-8.639-1.457Z"/>
    <path class="cls-11" d="M334.074,366.443s-13.201,7.747-13.201,0,13.201,0,13.201,0Z"/>
  </g>
</svg>