<?xml version="1.0" encoding="UTF-8"?>
<svg id="Layer_1" data-name="Layer 1" xmlns="http://www.w3.org/2000/svg" viewBox="0 0 595.276 841.89">
  <defs>
    <style>
      .cls-1 {
        fill: #016a74;
      }

      .cls-2 {
        fill: #231f20;
      }
    </style>
  </defs>
  <circle class="cls-2" cx="120.472" cy="420.945" r="35.433"/>
  <circle class="cls-1" cx="191.339" cy="420.945" r="17.717"/>
  <circle class="cls-2" cx="235.63" cy="420.945" r="8.858"/>
  <circle class="cls-2" cx="474.803" cy="420.945" r="35.433"/>
  <circle class="cls-1" cx="403.937" cy="420.945" r="17.717"/>
  <circle class="cls-2" cx="359.646" cy="420.945" r="8.858"/>
  <circle class="cls-2" cx="422.911" cy="295.671" r="35.433"/>
  <circle class="cls-1" cx="372.802" cy="345.781" r="17.717"/>
  <circle class="cls-2" cx="341.483" cy="377.1" r="8.858"/>
  <circle class="cls-2" cx="172.405" cy="295.712" r="35.433"/>
  <circle class="cls-1" cx="222.515" cy="345.822" r="17.717"/>
  <circle class="cls-2" cx="253.834" cy="377.141" r="8.858"/>
  <circle class="cls-2" cx="172.405" cy="546.177" r="35.433"/>
  <circle class="cls-1" cx="222.515" cy="496.067" r="17.717"/>
  <circle class="cls-2" cx="253.834" cy="464.749" r="8.858"/>
  <circle class="cls-2" cx="422.911" cy="546.219" r="35.433"/>
  <circle class="cls-1" cx="372.801" cy="496.109" r="17.717"/>
  <circle class="cls-2" cx="341.483" cy="464.79" r="8.858"/>
  <circle class="cls-2" cx="297.638" cy="597.664" r="35.433"/>
  <circle class="cls-1" cx="297.638" cy="526.798" r="17.717"/>
  <circle class="cls-2" cx="297.638" cy="482.506" r="8.858"/>
  <circle class="cls-2" cx="297.658" cy="244.226" r="35.433"/>
  <circle class="cls-1" cx="297.658" cy="315.092" r="17.717"/>
  <circle class="cls-2" cx="297.658" cy="359.383" r="8.858"/>
  <circle class="cls-1" cx="239.366" cy="280.263" r="28.346"/>
  <circle class="cls-2" cx="265.184" cy="342.543" r="14.173"/>
  <circle class="cls-1" cx="281.205" cy="381.272" r="7.087"/>
  <circle class="cls-1" cx="355.995" cy="280.058" r="28.346"/>
  <circle class="cls-2" cx="330.093" cy="342.543" r="14.173"/>
  <circle class="cls-1" cx="314.071" cy="381.272" r="7.087"/>
  <circle class="cls-1" cx="438.718" cy="362.566" r="28.346"/>
  <circle class="cls-2" cx="376.419" cy="388.341" r="14.173"/>
  <circle class="cls-1" cx="336.928" cy="404.67" r="7.087"/>
  <circle class="cls-1" cx="156.485" cy="362.477" r="28.346"/>
  <circle class="cls-2" cx="219.097" cy="388.403" r="14.173"/>
  <circle class="cls-1" cx="258.347" cy="404.67" r="7.087"/>
  <circle class="cls-1" cx="156.485" cy="479.412" r="28.346"/>
  <circle class="cls-2" cx="219.075" cy="453.496" r="14.173"/>
  <circle class="cls-1" cx="258.078" cy="437.221" r="7.087"/>
  <circle class="cls-1" cx="438.718" cy="479.382" r="28.346"/>
  <circle class="cls-2" cx="376.035" cy="453.409" r="14.173"/>
  <circle class="cls-1" cx="336.928" cy="437.22" r="7.087"/>
  <circle class="cls-1" cx="356.16" cy="562.231" r="28.346"/>
  <circle class="cls-2" cx="330.093" cy="499.347" r="14.173"/>
  <circle class="cls-1" cx="314.071" cy="460.618" r="7.087"/>
  <circle class="cls-1" cx="239.115" cy="562.231" r="28.346"/>
  <circle class="cls-2" cx="265.168" cy="499.347" r="14.173"/>
  <circle class="cls-1" cx="281.205" cy="460.618" r="7.087"/>
  <path class="cls-1" d="M297.638,403.228c-9.785,0-17.717,7.932-17.717,17.717s7.932,17.717,17.717,17.717,17.717-7.932,17.717-17.717-7.932-17.717-17.717-17.717ZM297.638,432.637c-6.457,0-11.692-5.235-11.692-11.692s5.235-11.692,11.692-11.692,11.692,5.235,11.692,11.692-5.235,11.692-11.692,11.692Z"/>
  <path class="cls-2" d="M290.856,404.573s-3.188,1.201-5.746,3.845l4.26,4.26s1.573-1.69,3.792-2.537l-2.306-5.568Z"/>
  <path class="cls-2" d="M281.267,414.163s-1.405,3.104-1.344,6.782h6.025s-.083-2.308.887-4.475l-5.568-2.306Z"/>
  <path class="cls-2" d="M281.233,427.7s1.201,3.188,3.845,5.746l4.26-4.26s-1.69-1.573-2.537-3.792l-5.568,2.306Z"/>
  <path class="cls-2" d="M290.856,437.306s3.104,1.405,6.782,1.344v-6.025s-2.308.083-4.475-.887l-2.306,5.568Z"/>
  <path class="cls-2" d="M304.414,437.312s3.188-1.201,5.746-3.845l-4.26-4.26s-1.573,1.69-3.792,2.537l2.306,5.568Z"/>
  <path class="cls-2" d="M314.007,427.726s1.405-3.104,1.344-6.782h-6.025s.083,2.308-.887,4.475l5.568,2.306Z"/>
  <path class="cls-2" d="M314.015,414.178s-1.201-3.188-3.845-5.746l-4.26,4.26s1.69,1.573,2.537,3.792l5.568-2.306Z"/>
  <path class="cls-2" d="M304.419,404.575s-3.104-1.405-6.782-1.344v6.025s2.308-.083,4.475.887l2.306-5.568Z"/>
</svg>