<?xml version="1.0" encoding="UTF-8"?>
<svg xmlns="http://www.w3.org/2000/svg" xmlns:xlink="http://www.w3.org/1999/xlink" viewBox="0 0 624 751.5">
  <defs>
    <style>
      .cls-1, .cls-2, .cls-3 {
        fill: none;
      }

      .cls-4 {
        fill: #ebc919;
      }

      .cls-2, .cls-5, .cls-6, .cls-7, .cls-8, .cls-9, .cls-10, .cls-11, .cls-12, .cls-13, .cls-14, .cls-15, .cls-16, .cls-17, .cls-3, .cls-18, .cls-19, .cls-20, .cls-21, .cls-22, .cls-23, .cls-24, .cls-25 {
        stroke: #231f20;
        stroke-miterlimit: 10;
      }

      .cls-26 {
        fill: #7d1e23;
      }

      .cls-5 {
        fill: url(#linear-gradient-2);
      }

      .cls-6 {
        fill: url(#linear-gradient-3);
      }

      .cls-7 {
        fill: url(#linear-gradient-4);
      }

      .cls-8 {
        fill: url(#linear-gradient-9);
      }

      .cls-9 {
        fill: url(#linear-gradient-6);
      }

      .cls-10 {
        fill: url(#linear-gradient-8);
      }

      .cls-11 {
        fill: url(#linear-gradient-7);
      }

      .cls-12 {
        fill: url(#linear-gradient-5);
      }

      .cls-27 {
        fill: #1c314e;
      }

      .cls-13 {
        fill: #f4f4dd;
      }

      .cls-28 {
        fill: url(#radial-gradient-4);
      }

      .cls-29 {
        fill: url(#radial-gradient-3);
      }

      .cls-30 {
        fill: url(#radial-gradient-2);
      }

      .cls-31, .cls-21 {
        fill: #d89828;
      }

      .cls-14, .cls-32 {
        fill: #b12425;
      }

      .cls-33, .cls-24 {
        fill: #231f20;
      }

      .cls-34 {
        fill: #192c49;
      }

      .cls-35 {
        fill: #fce565;
      }

      .cls-36 {
        fill: url(#radial-gradient);
      }

      .cls-15 {
        fill: url(#linear-gradient);
      }

      .cls-37 {
        fill: #974222;
      }

      .cls-38 {
        fill: #310000;
      }

      .cls-39 {
        fill: #d5b718;
      }

      .cls-16 {
        fill: #1f3554;
      }

      .cls-40 {
        fill: #8e1a1c;
      }

      .cls-41, .cls-20 {
        fill: #000422;
      }

      .cls-42 {
        fill: #b12225;
      }

      .cls-43 {
        fill: #a4742a;
      }

      .cls-17 {
        fill: #2c2f38;
      }

      .cls-44 {
        fill: #d79528;
      }

      .cls-45 {
        fill: #fcbe3f;
      }

      .cls-46 {
        fill: #2e100f;
      }

      .cls-47 {
        fill: #bc5827;
      }

      .cls-3 {
        stroke-width: .5px;
      }

      .cls-48 {
        fill: #fbd054;
      }

      .cls-49 {
        fill: #fcdf68;
      }

      .cls-50 {
        fill: #f9b42b;
      }

      .cls-51 {
        fill: #a61f23;
      }

      .cls-52 {
        fill: #3c0000;
      }

      .cls-18, .cls-53 {
        fill: #c95b28;
      }

      .cls-54 {
        fill: url(#linear-gradient-10);
      }

      .cls-55 {
        fill: url(#linear-gradient-12);
      }

      .cls-56 {
        fill: url(#linear-gradient-13);
      }

      .cls-57 {
        fill: url(#linear-gradient-19);
      }

      .cls-58 {
        fill: url(#linear-gradient-14);
      }

      .cls-59 {
        fill: url(#linear-gradient-15);
      }

      .cls-60 {
        fill: url(#linear-gradient-16);
      }

      .cls-61 {
        fill: url(#linear-gradient-17);
      }

      .cls-62 {
        fill: url(#linear-gradient-18);
      }

      .cls-63 {
        fill: #8d231d;
      }

      .cls-64 {
        fill: #d7a33d;
      }

      .cls-65 {
        fill: #f7b739;
      }

      .cls-66 {
        fill: #2d2a2b;
      }

      .cls-67 {
        fill: #e06c26;
      }

      .cls-68 {
        fill: #2f1414;
      }

      .cls-19 {
        fill: #400000;
      }

      .cls-69 {
        fill: #331415;
      }

      .cls-70 {
        fill: #801e19;
      }

      .cls-71 {
        fill: #841313;
      }

      .cls-72 {
        fill: #d8d7c5;
      }

      .cls-22 {
        fill: #ffde17;
      }

      .cls-23 {
        fill: url(#linear-gradient-11);
      }

      .cls-25 {
        fill: #01142f;
      }

      .cls-73 {
        fill: #fab542;
      }

      .cls-74 {
        fill: #6d6d6d;
        opacity: .15;
      }

      .cls-75 {
        fill: #cf4a27;
      }
    </style>
    <linearGradient id="linear-gradient" x1="294.879" y1="275.574" x2="330.549" y2="275.574" gradientUnits="userSpaceOnUse">
      <stop offset="0" stop-color="#381519"/>
      <stop offset=".165" stop-color="#421519"/>
      <stop offset=".452" stop-color="#5f181c"/>
      <stop offset=".826" stop-color="#8e1c20"/>
      <stop offset="1" stop-color="#a61f23"/>
    </linearGradient>
    <linearGradient id="linear-gradient-2" x1="229.005" y1="280.05" x2="262.423" y2="280.05" xlink:href="#linear-gradient"/>
    <linearGradient id="linear-gradient-3" x1="231.968" y1="264.3" x2="270.151" y2="264.3" xlink:href="#linear-gradient"/>
    <linearGradient id="linear-gradient-4" x1="230.178" y1="239.714" x2="273.202" y2="239.714" xlink:href="#linear-gradient"/>
    <linearGradient id="linear-gradient-5" x1="264.268" y1="302.489" x2="285.14" y2="302.489" xlink:href="#linear-gradient"/>
    <linearGradient id="linear-gradient-6" x1="266.571" y1="291.745" x2="287.836" y2="291.745" xlink:href="#linear-gradient"/>
    <linearGradient id="linear-gradient-7" x1="268.657" y1="274.201" x2="289.641" y2="274.201" xlink:href="#linear-gradient"/>
    <linearGradient id="linear-gradient-8" x1="267.375" y1="250.134" x2="284.58" y2="250.134" xlink:href="#linear-gradient"/>
    <linearGradient id="linear-gradient-9" x1="212.593" y1="490.199" x2="267.169" y2="490.199" gradientUnits="userSpaceOnUse">
      <stop offset="0" stop-color="#381519"/>
      <stop offset=".1" stop-color="#421519"/>
      <stop offset=".275" stop-color="#5f181c"/>
      <stop offset=".502" stop-color="#8e1c20"/>
      <stop offset=".608" stop-color="#a61f23"/>
    </linearGradient>
    <linearGradient id="linear-gradient-10" x1="213.127" y1="489.628" x2="249.624" y2="489.628" gradientUnits="userSpaceOnUse">
      <stop offset="0" stop-color="#381519"/>
      <stop offset=".136" stop-color="#421719"/>
      <stop offset=".339" stop-color="#5b1c1b"/>
      <stop offset="1" stop-color="#8b1518"/>
    </linearGradient>
    <linearGradient id="linear-gradient-11" x1="327.073" y1="497.697" x2="389.73" y2="497.697" xlink:href="#linear-gradient-9"/>
    <linearGradient id="linear-gradient-12" x1="327.658" y1="490.867" x2="363.847" y2="490.867" xlink:href="#linear-gradient-10"/>
    <radialGradient id="radial-gradient" cx="297.434" cy="165.774" fx="297.434" fy="165.774" r="2.935" gradientUnits="userSpaceOnUse">
      <stop offset="0" stop-color="#00adea"/>
      <stop offset=".06" stop-color="#00a7df"/>
      <stop offset=".166" stop-color="#0097c2"/>
      <stop offset=".183" stop-color="#0094bd"/>
      <stop offset=".422" stop-color="#007a99"/>
      <stop offset=".485" stop-color="#00738f"/>
      <stop offset=".746" stop-color="#084f61"/>
      <stop offset="1" stop-color="#063340"/>
    </radialGradient>
    <radialGradient id="radial-gradient-2" cx="328.614" fx="328.614" xlink:href="#radial-gradient"/>
    <linearGradient id="linear-gradient-13" x1="2119.286" y1="2066.723" x2="2119.286" y2="2056.848" gradientTransform="translate(3043.097 -455.369) rotate(120.183)" gradientUnits="userSpaceOnUse">
      <stop offset="0" stop-color="#b96628"/>
      <stop offset="1" stop-color="#dfb04f"/>
    </linearGradient>
    <linearGradient id="linear-gradient-14" x1="2119.016" y1="2113.666" x2="2119.016" y2="2081.68" gradientTransform="translate(3043.097 -455.369) rotate(120.183)" xlink:href="#linear-gradient"/>
    <radialGradient id="radial-gradient-3" cx="2081.293" cy="1834.312" fx="2081.293" fy="1834.312" r="34.271" gradientTransform="translate(3043.097 -455.369) rotate(120.183)" gradientUnits="userSpaceOnUse">
      <stop offset="0" stop-color="#f3cce1" stop-opacity=".8"/>
      <stop offset=".083" stop-color="#e8bbd2" stop-opacity=".828"/>
      <stop offset=".229" stop-color="#ce8fac" stop-opacity=".902"/>
      <stop offset=".384" stop-color="#ab567b"/>
      <stop offset=".98" stop-color="#f2cce1" stop-opacity=".8"/>
    </radialGradient>
    <linearGradient id="linear-gradient-15" x1="2114.151" y1="1899.549" x2="2114.151" y2="1886.518" gradientTransform="translate(3043.097 -455.369) rotate(120.183)" gradientUnits="userSpaceOnUse">
      <stop offset="0" stop-color="#eaa32d"/>
      <stop offset=".152" stop-color="#df992b"/>
      <stop offset=".418" stop-color="#c28025"/>
      <stop offset=".762" stop-color="#93581d"/>
      <stop offset="1" stop-color="#703917"/>
    </linearGradient>
    <linearGradient id="linear-gradient-16" x1="2110.325" y1="1902.747" x2="2110.325" y2="1888.216" gradientTransform="translate(3043.097 -455.369) rotate(120.183)" gradientUnits="userSpaceOnUse">
      <stop offset="0" stop-color="#f3cce1"/>
      <stop offset=".15" stop-color="#ecc1d7"/>
      <stop offset=".412" stop-color="#dba4bf"/>
      <stop offset=".753" stop-color="#be7597"/>
      <stop offset="1" stop-color="#a85077"/>
    </linearGradient>
    <linearGradient id="linear-gradient-17" x1="2124.531" y1="1899.393" x2="2124.531" xlink:href="#linear-gradient-15"/>
    <linearGradient id="linear-gradient-18" x1="2121.068" y1="1882.866" x2="2134.12" y2="1882.866" gradientTransform="translate(3043.097 -455.369) rotate(120.183)" gradientUnits="userSpaceOnUse">
      <stop offset=".01" stop-color="#703917"/>
      <stop offset=".869" stop-color="#eaa32d"/>
    </linearGradient>
    <linearGradient id="linear-gradient-19" x1="2105.74" y1="1882.632" x2="2118.005" y2="1882.632" xlink:href="#linear-gradient-15"/>
    <radialGradient id="radial-gradient-4" cx="2119.296" cy="1763.712" fx="2119.296" fy="1763.712" r="4.321" gradientTransform="translate(3043.097 -455.369) rotate(120.183)" xlink:href="#radial-gradient"/>
  </defs>
  <g id="Layer_2" data-name="Layer 2">
    <ellipse class="cls-74" cx="300.332" cy="568.981" rx="159.341" ry="56.322"/>
  </g>
  <g id="tridente">
    <polygon class="cls-14" points="289.339 234.368 343.394 236.976 340.691 268.146 293.721 264.3 289.339 234.368"/>
    <polygon class="cls-40" points="308.871 240.981 312.484 257.719 317.496 241.976 318.684 241.679 312.55 259.579 307.656 240.402 308.871 240.981"/>
    <path class="cls-40" d="M308.395,243.298s5.773,4.244,9.734,0,0,0,0,0l.555-1.619v-2.125l-11.344-.562.317,1.411.739,2.896"/>
    <path class="cls-17" d="M395.366,483.206s-116.697-56.147-193.761,18.275c0,0,42.27-157.147,80.804-170.862,0,0,65.253-10.128,80.958,29.064,0,0,39.045,100.844,31.999,123.523Z"/>
    <path class="cls-14" d="M372.228,239.714s.491,25.316,1.812,28.153c0,0,4.844,9.223,2.422,18.03l1.541,15.32-16.514,6.258s-15.243-26.931,10.739-67.761Z"/>
    <polygon class="cls-40" points="361.121 304.71 377.309 298.697 378.003 308.273 364.746 312.21 361.936 307.314 361.197 305.661 361.121 304.71"/>
    <path class="cls-18" d="M361.489,307.475l23.119-8.367s3.743,13.872.661,23.78c0,0-1.969,16.073,1.218,26.092l5.828,14.092-2.312,10.459-11.45,4.073-22.899-69.248,5.835-.881Z"/>
    <path class="cls-37" d="M363.371,312.398l15.465,60.344s-13.215-39.219-13.34-40.469c0,0-3.938-16.438-3.594-19.406l1.469-.469Z"/>
    <path class="cls-14" d="M277.104,253.751s-21.358,23.56-24.44,51.743l-4.018-1.321-9.413,12.771-2.037-15.027-3.963-.698,1.982-8.605,35.845-43.982,6.045,5.119Z"/>
    <path class="cls-14" d="M292.079,347.272l22.459,58.128s7.486,16.294,14.092,19.816c0,0,3.523,4.404,0,16.294l26.642,1.982s-1.651-12.55,0-13.211c0,0,1.321-5.284-2.642-16.514,0,0,0-12.22-6.275-39.963l-42.605-32.037-11.67,5.505Z"/>
    <path class="cls-14" d="M249.371,354.273s3.956,58.504-10.576,84.926l25.541-3.083,40.923-102.843-55.888,21Z"/>
    <polygon class="cls-21" points="385.797 305.071 357.434 313.738 355.654 308.356 361.489 307.475 384.608 299.108 385.797 305.071"/>
    <polygon class="cls-43" points="363.059 311.481 362.072 307.798 361.365 308.002 361.76 311.94 363.059 311.481"/>
    <path class="cls-15" d="M296.2,238.174l-1.321,78.605h35.67l-2.202-78.605h-4.005l-4.83,2.505-7.028,20.642-5.854-22.934s-8.257-3.248-8.642-4.018l-1.788,3.806Z"/>
    <path class="cls-33" d="M312.484,268.146c.513,2.863.518,5.738,0,8.601-.518-2.863-.513-5.738,0-8.601h0Z"/>
    <path class="cls-33" d="M312.484,283.339c.513,2.932.518,5.876,0,8.807-.518-2.932-.513-5.876,0-8.807h0Z"/>
    <path class="cls-33" d="M302.796,270.788c2.442,1.611,4.543,3.6,6.275,5.959-2.445-1.608-4.54-3.603-6.275-5.959h0Z"/>
    <path class="cls-33" d="M302.796,286.187c2.442,1.611,4.543,3.6,6.275,5.959-2.445-1.608-4.54-3.603-6.275-5.959h0Z"/>
    <path class="cls-33" d="M322.632,286.187c-1.735,2.356-3.83,4.351-6.275,5.959,1.732-2.359,3.833-4.348,6.275-5.959h0Z"/>
    <path class="cls-33" d="M322.632,270.788c-1.735,2.356-3.83,4.351-6.275,5.959,1.732-2.359,3.833-4.348,6.275-5.959h0Z"/>
    <path class="cls-40" d="M274.393,368.817s-16.475,38.081-20.249,64.768c0,0-3.961-.125-10.086-5.781s0,0,0,0c0,0,7.229-18.693,6.021-58.987l25.875-28.592,9.917,20.297-11.478,8.294"/>
    <path class="cls-40" d="M250.686,377.669l33.209,15.22-4.107,4.634-29.708-12.2s.295-6.427.2-6.956l.406-.698"/>
    <path class="cls-68" d="M299.059,299.69s9.43,8.396,26.527-1.792l4.635,7.173-15.581,6.869-18.769-6.279,3.188-5.972Z"/>
    <polygon class="cls-21" points="294.714 301.218 310.567 310.366 311.888 352.311 282.934 426.183 269.723 337.449 294.714 301.218"/>
    <polygon class="cls-21" points="327.026 298.697 310.567 310.366 311.888 352.311 333.962 426.183 355.65 345.375 327.026 298.697"/>
    <polygon class="cls-18" points="327.634 305.071 312.821 315.574 314.01 353.324 333.876 419.808 353.395 347.082 327.634 305.071"/>
    <polygon class="cls-18" points="294.323 307.466 308.591 315.7 309.78 353.45 283.721 419.934 271.831 340.074 294.323 307.466"/>
    <path class="cls-40" d="M363.526,281.496l-2.329,24.165s-7.802-37.515,10.595-63.68l-5.672,23.89c-1.221,5.143-2.088,10.364-2.595,15.625Z"/>
    <path class="cls-68" d="M325.586,239.714s-5.285,32.947,0,60.44v-60.44Z"/>
    <path class="cls-68" d="M300.96,239.714s2.313,2.684,6.32,3.226l-1.284-4.771-5.664-2.812.628,4.358"/>
    <path class="cls-68" d="M325.586,238.367l.098,2.906s-2.851,1.376-6.533,2.098l1.158-3.515,5.277-1.49"/>
    <polygon class="cls-43" points="323.6 307.273 323.359 301.877 327.024 299.315 326.85 305.071 323.6 307.273"/>
    <path class="cls-37" d="M323.821,308.375l-.031,26.822c-.001,1.191.678,2.274,1.756,2.782,4.304,2.026,15.711,8.37,23.804,22.224l2.021-6.679-25.197-46.838-2.353,1.69Z"/>
    <path class="cls-13" d="M354.32,227.137l19.486,9.578s-26.752,48.55-4.624,108.66c0,0,20.147,64.404,57.137,151.926l-33.027,14.532s-11.229-149.614-67.706-176.036v-97.431l-.44-9.771,29.174-1.459Z"/>
    <path class="cls-68" d="M301.463,236.976s3.042,41.611-3.025,66.392"/>
    <path class="cls-37" d="M300.332,311.523l-1.296,23.878c-.066,1.21-1.055,2.171-2.266,2.174-4.007.011-13.214,1.238-23.219,10.703l-1.524-8.487,17.594-19.143,5.438-12.812,3.568,2.69,1.705.997Z"/>
    <polygon class="cls-43" points="300.332 310.398 300.788 305.273 297.168 303.231 297.168 308.731 300.332 310.398"/>
    <path class="cls-13" d="M269.425,263.755s15.523,52.844-91.486,220.293c0,0,17.174,24.826,29.064,28.101,0,0,33.027-177.385,90.165-176.724l4.295-108.413-38.763-1.569,6.725,38.312Z"/>
    <path class="cls-5" d="M238.462,277.861s1.317,8.008-3.963,11.009c-.87.494-12.254,3.444.55,3.963,9.308.378,21.075-2.22,27.374-25.599l-23.961,10.626Z"/>
    <path class="cls-6" d="M240.719,263.081s-1.041,11.287-3.193,12.468c-.855.469-12.44,2.147.606,3.853,0,0,24.544,2.78,32.02-30.261l-29.432,13.94Z"/>
    <path class="cls-72" d="M267.375,226.627l-3.358-.208s-3.5,11.812,5.125,15.958l1.833-.729s-1.722-8.292-3.601-15.021Z"/>
    <path class="cls-72" d="M272.079,246.398l-1.458,2.922s-1.224,5.086-1.964,6.953l1.297,7.604s.417,1.25.667,4.625h7.391l-3.433-23.354-2.5,1.25Z"/>
    <path class="cls-7" d="M265.397,224.217l-6.238,2.836-4.982-11.821v15.193l-3.743,2.422s-9.578-8.807-10.899-8.807l5.064,13.761s-1.761,2.752-1.541,4.294l-12.881-2.752s13.211,8.917,12.661,9.138c0,0,.933,10.702-1.321,13.101-.459.488-13.431,2.202-.881,2.532,0,0,25.464,2.032,29.087-14.092l3.479-7.157s-12.88-2.353-7.805-18.647Z"/>
    <path class="cls-25" d="M273.499,189.333c.755-1.76,2.872-3.882,8.8-2.427.156.038.322.05.481.029l56.19-7.315c.413-.054.826-.06,1.24-.016,2.129.224,9.219.905,12.39,4.114.8.81-.647,7.06-1.784,7.124l-70.348,6.275c-.976.055-7.354-6.886-6.968-7.784Z"/>
    <path class="cls-22" d="M297.113,152.595c-4.927,4.406-19.238,4.881-25.761,5.945-3.993.651-17.293,4.957,0,16.183,3.385,2.197,13.872,8.257,13.872,8.257,0,0,6.385,2.642.991,9.908-3.926,5.288-5.725,14.202-5.725,14.202h64.514s-4.323-8.183-9.285-16.539c-1.37-2.307-6.678-8.232,6.092-10.709,3.227-.626,12.33-4.569,12.33-4.569,0,0,20.718-11.152,0-17.174-4.747-1.38-19.596-2.642-19.596-2.642,0,0-6.745-.175-8.807-11.009-.596-3.129-2.75-9.165-3.963-12.11-1.575-3.823-8.099-17.992-16.515-.881-2.499,5.082-3.925,17.362-8.146,21.138Z"/>
    <path class="cls-72" d="M264.137,311.789s17.109,1.391,19.484-7.328l-18.406,3.188-1.078,4.141Z"/>
    <polyline class="cls-72" points="243.528 385.385 245.215 386.236 249.621 377.429 246.809 375.742 242.34 385.023 243.528 385.385"/>
    <path class="cls-72" d="M277.203,306.94s-82.03,190.885-83.499,195.292c0,0-7.792-7.625-15.177-18.208,0,0,67.494-100.722,87.46-178.569l11.216,1.486Z"/>
    <path class="cls-72" d="M281.371,228.315s5.291,15.056,5.891,28.217c0,0,4.359,25.278,3.614,28.381-4.972,20.699,0,0,0,0,0,0,.499,4.892-3.253,10.064-3.752,5.172,0,0,0,0,0,0-.884,8.016-5.693,12.49s0,0,0,0l-5.476-83.308,4.917,4.156Z"/>
    <path class="cls-12" d="M266.573,300.23s-1.597,7.236-2.193,8.72c-.088.218-.194.746-.012.856,1.308.791,4.292,1.709,11.369.119,2.242-.504,6.478-4.352,6.852-4.77,1.653-1.844,2.981-10.604,2.422-10.975l-18.437,6.051Z"/>
    <path class="cls-68" d="M266.637,302.207s7.805,2.128,11.342-1.413c0,0,2.996-3.729,6.662-5.958l-3.062-3.438-14.333,8.417-.375,1.364-.234,1.028Z"/>
    <path class="cls-9" d="M268.587,289.268c-.072-.023-1.201,8.63-1.982,10.737-.093.251.011.525.244.621,1.609.666,6.719,2.295,11.246-1.554,2.428-2.064,4.534-5.458,8.081-5.78.274-.025.665-.527.683-.826l.977-9.801c.005-.06-1.022-.662-1.455-.714-1.45-.173-15.479,3.695-17.793,7.316Z"/>
    <path class="cls-68" d="M268.697,291.745s4.494.81,8.506-2.659c0,0,3.933-4.031,10.058-5.891l-6.703-3.016-11.557,10.39-.198.443-.106.732Z"/>
    <path class="cls-11" d="M270.06,278.787s-.918,9.447-1.396,10.706c-.048.127.207,1.042.338,1.077,1.301.343,4.792.193,10.772-4.59,1.933-1.546,7.327-4.202,9.426-3.021.205.115.454-.057.44-.291-.154-2.668-2.621-22.213-5.22-24.949,0,0-.902,18.921-14.361,21.068Z"/>
    <path class="cls-68" d="M284.776,259.302s1.888,15.419-14.725,24.294l.153-1.318,14.573-22.976Z"/>
    <path class="cls-10" d="M267.375,224.85s12.024,41.602,2.777,44.409l-.121,12.55s27.707-9.414,6.65-63.353l-9.306,6.393Z"/>
    <path class="cls-4" d="M288.746,186.106s21.633,6.25,44.879-2.75c0,0-2.337,1.667,1.496,7.25,0,0-18.582,11.667-50.541,4.333,0,0,5.374-3.917,4.166-8.833Z"/>
    <path class="cls-72" d="M356.371,228.69s-11.25,10-30.292,14.25v-6.167l25.875-10.75,2.557,1.748,1.86.919Z"/>
    <path class="cls-16" d="M273.499,189.333s25.927,15.688,79.101-5.615c0,0,7.963,9.427,3.468,24.605-1.367,4.616-3.26,15.121-1.982,19.156,1.307,4.127-27.976,11.846-37.783,14.307-2.021.507-4.151.276-6.018-.65l-13.268-6.502c-3.913-1.942-12.53-6.141-16.761-7.199-1.734-.434-3.504-.71-5.286-.847l-10.223-.595s.529-11.655,8.752-15.523c3.028-1.424,7.094-4.311.495-13.376-1.144-1.572-2.312-4.294-.495-7.761Z"/>
    <polygon class="cls-53" points="278.012 243.416 274.544 250.021 269.012 244.489 272.81 236.976 278.012 243.416"/>
    <polygon class="cls-32" points="275.965 243.453 274.075 247.054 271.059 244.039 273.13 239.943 275.965 243.453"/>
    <path class="cls-19" d="M234.354,533.475s2.324,26.957,1.817,27.578c0,0-3.303,3.468-4.294,3.468,0,0-2.025-1.029-2.972,1.651,0,0-9.44,12.736-27.32,5.667-1.977-.781-3.71-2.105-4.899-3.867-.385-.57-.693-1.131-.782-1.564-.027-.132.069-.257.201-.285l1.423-.305c.378-.081.525-.338.428-.565-.279-.655-.498-1.935,1.389-2.879,0,0,6.771-2.972,15.193-22.128l19.816-6.771Z"/>
    <path class="cls-52" d="M220.934,569.085s-1.562,5.844-18.187-4.26c0,0-2.531-.6-4.406.072,0,0-.422-1.156.859-1.891,0,0,2.922-1.578,4.609-3.828,0,0,6.104-6.656,10.771-18.073,0,0,9.76,11.573,6.354,27.979Z"/>
    <path class="cls-40" d="M244.059,427.554s17.188,3.969,22.625,1.25c0,0-10.812,28.594-22.625-1.25Z"/>
    <path class="cls-8" d="M267.162,429.014s-9.377,12.551-23.689-1.21c0,0-11.064,12.771-10.403,18.055l2.422,1.321s-10.459,13.321-8.147,20.037l1.872.991s-4.624,14.862-3.303,17.394l2.092.991s-5.725,11.119-3.523,16.514l2.092.55s-5.945,9.138-4.954,13.541l1.211.771s8.092,1.101-5.945,10.018c0,0-2.701.767-4.294,9.908,0,0,6.275,5.615,6.44,14.697,0,0,10.404-12.55,14.807-12.11,0,0,4.624-.22,5.945-1.321l.661-5.725s-5.137-5.123-3.073-12.967l3.073-1.345s5.638-9.389,2.17-16.696c0,0,.582-.148,2.344-.698,0,0,6.698-7.393,1.317-17.453,0,0,.485-.26,3.087-1.373,0,0,5.452-11.675,3.808-17.129,0,0,1.367-.486,3.018-1.036,0,0,7.668-12.11,3.292-18.082,0,0,1.332-.523,3.424-.963,0,0,4.466-8.484,4.257-16.68Z"/>
    <path class="cls-54" d="M249.624,432.975s-1.812,19.5-6.688,22.625c0,0-7.11,3.271-4.045,19.021,0,0,2.393,14.583-5.812,24.583,0,0-4.296,1.962-.122,19.656.04.169.08.339.122.511,0,0,3.473,3.11-13.408,31.263,0,0-.669-6.159-6.544-12.909,0,0,1.611-7.58,3.445-8.955,0,0,9.304-5.949,9.052-8.525,0,0,1.042-1.667-3.458-3.25,0,0-1.125-3.534,4.667-12.913,0,0,1.458-.795-1.75-1.379,0,0-2.667-3.708,3.292-15.458,0,0,1.074-.73-2.176-1.985,0,0-.74-2.974,3.426-16.349,0,0,1.56-.111-1.815-2.028,0,0-3.144-4.18,7.981-19.055,0,0,.667-.833-2.25-2.417,0,0,0-5.458,9.958-16.792,0,0,3.833,3.625,6.125,4.354Z"/>
    <path class="cls-19" d="M356.893,535.882c-.463,1.516-6.302,21.034-2.562,29.161.026.056.065.096.122.12.853.356,8.164,3.35,11.455,2.946.128-.016.213-.137.198-.265l-.245-2.09c-.018-.154.111-.283.264-.26,1.429.215,7.693,1.321,12.747,4.766.498.34,1.037.602,1.619.758,3.156.849,13.653,2.759,26.194-4.81.317-.191.317-.657-.005-.839-5.02-2.842-34.486-20.422-29.781-39.086.049-.195-.145-.357-.325-.268l-19.563,9.73c-.058.029-.1.077-.119.139Z"/>
    <path class="cls-40" d="M329.809,438.96l24.479,1.438.481,4.375-26.023-2.141s.979-2.964,1.062-3.672Z"/>
    <path class="cls-23" d="M328.629,441.511s-6.468,24.347,6.963,45.045c0,0,17.394,33.248,16.294,36.55,0,0-1.954,5.615-3.523,7.018l4.294,9.413s13.754-.41,21.644,10.26c.817,1.105,1.898,1.993,3.152,2.555,2.368,1.062,6.518,2.195,12.278,1.056,0,0-16.018-14.119-12.55-27.165l-6.165-4.239s-20.147-59.357-15.743-78.512l-26.642-1.982Z"/>
    <path class="cls-55" d="M339.704,442.815s4.394,29.958,9.155,38.292c0,0,4.395,8.5,4.245,19,0,0,.138,5.276,5.671,11.603,0,0,7.646,11.277,4.163,21.087,0,0-2.225,4.633-4.536,6.915,0,0-2.818-.969-5.315-.656l-4.122-8.844s2.344-3.125,3.469-7.469c0,0-1.689-9.219-12.959-29.635l-3.937-7.667s-11.767-16.426-6.542-43.417l8.917.667"/>
    <polygon class="cls-38" points="366.011 565.135 366.309 567.179 367.898 566.05 367.898 564.835 366.011 565.135"/>
    <path class="cls-24" d="M404.034,563.802c-.56-.376-6.391.871-7.837,1.633-1.25.658-2.479,1.34-3.613,2.183-5.65,4.197-10.078,1.919-10.078,1.919l-29.402-10.827s.377,5.579,1.348,6.453c0,0,6.182,2.717,11.369,2.942.05.002.096-.033.105-.082.039-.206.112-.801-.03-1.985-.018-.153.073-.539.227-.546,1.112-.048,5.525.342,12.747,4.766,0,0,11.65,4.713,27.352-3.777.592-.32,1.003-.722.456-1.114-.484-.346-2.003-1.133-2.646-1.565Z"/>
    <path class="cls-24" d="M236.051,555.63s-10.821,12.438-16.431,15.186c-.867.425-1.849.563-2.806.437-1.898-.25-5.946-1.091-12.141-4.954-1.031-.643-2.182-1.078-3.392-1.187-1.058-.096-2.319-.03-3.403.528l-1.774.483s.613,4.211,5.48,5.716c0,0,16.204,7.639,27.32-5.667,0,0,.719-2.409,2.972-1.651,0,0,2.921-1.556,4.294-3.468l-.119-5.422Z"/>
    <path class="cls-36" d="M297.434,167.63c2.051,0,3.713-1.662,3.713-3.713h-7.426c0,2.051,1.662,3.713,3.713,3.713Z"/>
    <path class="cls-30" d="M328.614,167.63c2.051,0,3.713-1.662,3.713-3.713h-7.426c0,2.051,1.662,3.713,3.713,3.713Z"/>
    <rect class="cls-33" x="291.816" y="161.1" width="11.236" height="3.23"/>
    <rect class="cls-33" x="322.996" y="161.1" width="11.236" height="3.23"/>
    <path class="cls-3" d="M292.636,168.532s3.555.641,4.74.655,4.743-.537,4.743-.537"/>
    <path class="cls-3" d="M324.461,168.533s3.435.639,4.581.654,4.584-.539,4.584-.539"/>
    <polygon class="cls-33" points="241.399 261.095 253.762 258.621 241.634 262.067 241.399 261.095 241.399 261.095"/>
    <path class="cls-33" d="M269.251,244.634c-.989,1.478-2.248,3.619-3.407,4.947l-3.981,4.471c1.267-1.674,4.388-5.351,5.276-7.202,0,0,1.47-2.605,1.47-2.605l.641.389h0Z"/>
    <polygon class="cls-33" points="237.448 275.055 244.62 274.419 237.605 276.043 237.448 275.055 237.448 275.055"/>
    <polygon class="cls-33" points="234.378 288.385 239.612 287.597 234.619 289.355 234.378 288.385 234.378 288.385"/>
    <path class="cls-33" d="M378.372,374.098c1.204-3.15,2.217-6.766,1.403-10.124-.66-1.592-1.094-3.48-.821-5.243.297-1.757.727-3.475,1.083-5.207-.274,1.748-.623,3.489-.834,5.23-.171,1.815.294,3.416,1.05,5.073.554,1.756.529,3.611.306,5.391-.234,1.792-.656,3.529-1.259,5.252l-.928-.371h0Z"/>
    <polygon class="cls-33" points="385.117 375.061 388.137 359.635 386.104 375.222 385.117 375.061 385.117 375.061"/>
    <path class="cls-27" d="M329.84,191.679s-5.219,5.969,2.781,14.094c0,0,8.125,6.812,3.812,13.188,0,0-6.656,7.812-3.031,17.625l-17.036,4.688s-2.915.562-4.933,0l-28-13.812,3.942-33.398s16.714,4.179,42.464-2.384Z"/>
    <path class="cls-33" d="M289.641,219.773c13.386-1.809,26.858-3.675,39.84-7.493,3.012-.844,6.613-2.237,9.456-3.575,0,0,2.934-1.683,2.934-1.683-12.008,8.928-37.273,11.942-52.23,12.75h0Z"/>
    <path class="cls-34" d="M288.781,194.338s9.397,8.768,3.035,14.268c0,0-5.092,6.167-2.477,10.583,0,0,10.084,9.962,5.393,13.845,0,0-12.023-5.596-14.151-5.512,0,0-5.984-1.528-15.314-2.014,0,0-.059-10.839,8.23-15.037,0,0,8.892-2.198.495-13.376,0,0-2.888-2.414-.265-7.058,0,0,9.361,3.986,15.053,4.301Z"/>
    <path class="cls-33" d="M282.391,198.94c4.093,3.609,8.753,6.215,13.897,8.083-5.468-.475-10.834-3.501-13.897-8.083h0Z"/>
    <path class="cls-41" d="M273.729,190.037s-1.908,4.707,2.248,8.403c0,0,6.106,6.583,0,11.167,0,0-7.417,3.29-10.709,15.902,0,0-.398-11.748,9.733-15.737,0,0,5.096-2.696.576-10.347,0,0-5.292-4.635-1.849-9.387"/>
    <polygon class="cls-33" points="277.101 206.848 288.259 213.354 276.632 207.731 277.101 206.848 277.101 206.848"/>
    <polygon class="cls-33" points="357.442 196.618 343.371 200.898 357.119 195.671 357.442 196.618 357.442 196.618"/>
    <path class="cls-20" d="M288.185,186.232l-5.406.704s-7.841-2.354-9.281,2.398c0,0,6.39,3.544,12.319,4.117,0,0,3.245-4.509,2.368-7.218Z"/>
    <path class="cls-46" d="M245.139,237.849l-2.611-9.358,7.823,4.927s-8.812-8.31-9.882-8.358c0,0,3.546,11.382,4.671,12.788Z"/>
    <polygon class="cls-46" points="254.704 230.606 255.475 222.335 258.892 227.71 254.704 217.71 254.704 230.606"/>
    <polygon class="cls-46" points="243.072 247.876 236.827 242.4 243.633 242.696 232.515 240.379 243.072 247.876"/>
    <path class="cls-46" d="M240.767,266.46l-.417,2.646s23.63.182,27.439-13.469c0,0-7.165,9.767-26.717,8.989"/>
    <path class="cls-46" d="M238.892,282.72l-.647,2.388s19.195-2.072,22.976-15.541c0,0-8.913,10.483-22.153,10.376"/>
    <path class="cls-40" d="M267.918,258.139l1.006,5.52s-9.521,15.145-14.214,29.306c0,0-14.93,3.11-19.435,1.527l.311-1.26s20.077,2.957,27.238-25.757l5.094-9.337Z"/>
    <path class="cls-38" d="M214.579,541.106s-1.958,11.167-16.24,23.792c0,0-1.115-1.424,2.661-3.056,0,0,9.183-9.34,13.578-20.736Z"/>
    <path class="cls-52" d="M356.246,540.273s11.125.875,18.125,10.438c0,0,2,2.658,6.75,3.173,0,0,7.833,8.64,13.771,11.744,0,0-.854.229-3.604,2.25,0,0-3.458,2.854-8.812,1.188l-28.854-10.708s-.167-8.583,2.625-18.083Z"/>
    <path class="cls-38" d="M353.621,558.356s18.883,5.476,29.529,11.023l-29.529-11.023Z"/>
    <line class="cls-2" x1="366.106" y1="567.842" x2="368.41" y2="565.538"/>
    <path class="cls-38" d="M356.246,540.273s.292,10.167-2.625,18.083c0,0-.167-9.208,2.625-18.083Z"/>
    <path class="cls-38" d="M356.246,540.273s12.531,2.625,15.875,10.208c0,0,2.134,3.135,8.458,4.625,0,0,3.979.792,9.151-1.223,0,0-11.312,1.859-15.475-3.443,0,0-5.509-9.167-18.009-10.167Z"/>
    <path class="cls-38" d="M214.579,541.106s4.292,11.042,3.25,14.333c0,0,11.542-12.838,16.708-14.422,0,0-2.875-3.495-15.667,12.505,0,0,.25-8.292-4.292-12.417Z"/>
    <path class="cls-66" d="M228.262,487.179l-.984,2.156s3.609-.844,8.359-.094l-7.375-2.062Z"/>
    <path class="cls-66" d="M245.997,484.849s.706,1.4.741,1.588c0,0-1.729-.588-6.776-.047l6.035-1.541Z"/>
    <path class="cls-66" d="M235.559,447.851l-1.375,1.984s7.141-.032,12.531,2.249l-11.156-4.234Z"/>
    <path class="cls-66" d="M259.27,447.202s.672.734,1,2.773c0,0-4.828-.742-12.25.32,0,0,10.188-2.922,11.25-3.094Z"/>
    <path class="cls-66" d="M229.539,468.861l-.635,1.935s7.232.643,10.798,1.935l-10.163-3.87Z"/>
    <path class="cls-66" d="M252.826,466.384s.295,1.618.107,2.306c0,0-3.371-.696-11.396.396l11.288-2.702Z"/>
    <path class="cls-66" d="M226.788,504.169s-1.231,2.059-1.313,2.208c0,0,2.501-1.895,9.793-1.687l-8.479-.521Z"/>
    <path class="cls-66" d="M242.31,502.953s.478.82.624,1.945c0,0-2.042-1.292-8.437-1.25l7.814-.695Z"/>
    <path class="cls-66" d="M236.723,521.034s-.273,1.593-.231,1.843c0,0,.633-1.225-3.972-1.329l4.203-.514Z"/>
    <path class="cls-66" d="M225.621,520.231s-.501,1.405-.71,1.697c0,0,1.74-.904,4.698.659l-3.988-2.355Z"/>
    <path class="cls-66" d="M216.413,529.106l-3.286,8.62s1.077-6.828,3.286-8.62Z"/>
    <path class="cls-66" d="M216.213,529.106l-.797,1.242s3.166.231,9.276,3.872l-8.478-5.114Z"/>
    <path class="cls-66" d="M239.881,533.96l-.177,1.75s-11.671-1.515-14.364-1.402l14.54-.348Z"/>
    <path class="cls-66" d="M221.887,548.648c.068-.125,2.693-13.15,2.853-13.783l-4.574,15.643,1.72-1.86Z"/>
    <path class="cls-66" d="M218.767,547.46s.536,2.004.578,2.733l5.391-15.314s-4.666,12.143-5.968,12.581Z"/>
    <polygon class="cls-33" points="235.328 446.693 242.286 450.405 234.914 447.603 235.328 446.693 235.328 446.693"/>
    <polygon class="cls-33" points="259.637 447.133 250.646 449.559 259.325 446.182 259.637 447.133 259.637 447.133"/>
    <polygon class="cls-33" points="229.252 467.872 236.834 471.639 228.861 468.792 229.252 467.872 229.252 467.872"/>
    <polygon class="cls-33" points="253.313 466.256 243.645 468.598 253.029 465.297 253.313 466.256 253.313 466.256"/>
    <polygon class="cls-33" points="246.447 484.748 241.67 485.944 246.107 483.808 246.447 484.748 246.447 484.748"/>
    <polygon class="cls-33" points="228.025 486.175 232.904 488.473 227.684 487.115 228.025 486.175 228.025 486.175"/>
    <polygon class="cls-33" points="226.655 503.164 231.637 504.479 226.494 504.151 226.655 503.164 226.655 503.164"/>
    <polygon class="cls-33" points="242.697 502.923 236.158 503.488 242.535 501.936 242.697 502.923 242.697 502.923"/>
    <polygon class="cls-33" points="225.361 518.993 227.676 521.445 224.744 519.78 225.361 518.993 225.361 518.993"/>
    <polygon class="cls-33" points="237.501 520.954 233.931 521.383 237.245 519.987 237.501 520.954 237.501 520.954"/>
    <polygon class="cls-33" points="216.44 528.079 224.488 534.109 215.881 528.908 216.44 528.079 216.44 528.079"/>
    <polygon class="cls-33" points="240.475 533.936 225.464 534.317 240.417 532.938 240.475 533.936 240.475 533.936"/>
    <polygon class="cls-33" points="225.216 535.018 219.033 552.593 224.264 534.712 225.216 535.018 225.216 535.018"/>
    <path class="cls-66" d="M332.746,448.898s1.553,4.242,8.464,7.996,0,0,0,0l-1.16-3.164s-.616,1.043-7.303-4.832Z"/>
    <path class="cls-66" d="M330.871,465.46s11.5,10.563,24.583,3.646c0,0-8.208,3.167-24.583-3.646Z"/>
    <path class="cls-66" d="M337.871,482.981s17.633,18.274,20.715,2.125c0,0-1.382,8-20.715-2.125Z"/>
    <path class="cls-66" d="M346.788,500.731s6.792,7.263,17.583,3.506c0,0-8.875.785-17.583-3.506Z"/>
    <path class="cls-66" d="M353.087,515.315s5.534,6.483,15.118,2.804c0,0-8.944.363-15.118-2.804Z"/>
    <path class="cls-66" d="M350.079,529.106s18.542-2.083,25.375-.167c0,0-11.708-5.125-25.375.167Z"/>
    <path class="cls-66" d="M375.454,531.835s-1.862,10.646,8.965,17.479c0,0-7.381-7.479-8.965-17.479Z"/>
    <path class="cls-33" d="M333.309,449.352c5.786,3.706,12.18,6.276,18.936,7.541-6.934.138-13.976-2.7-18.936-7.541h0Z"/>
    <path class="cls-33" d="M331.988,465.811c7.438,1.918,15.087,4.559,22.844,3.358-7.276,2.625-16.133-.17-22.844-3.358h0Z"/>
    <path class="cls-33" d="M339.474,483.811c2.848.935,6.831,2.337,9.696,3.022,2.383.534,4.936,1.196,7.298.409.76-.263,1.4-.837,1.776-1.615-2.041,6.21-15.098.563-18.771-1.817h0Z"/>
    <path class="cls-33" d="M347.882,501.212c5.284,1.342,10.444,2.666,15.894,2.924-5.381,1.148-11.152-.294-15.894-2.924h0Z"/>
    <path class="cls-33" d="M354.24,515.751c4.12,1.368,8.38,1.564,12.619,2.367-4.247.6-9.08.276-12.619-2.367h0Z"/>
    <path class="cls-33" d="M350.993,528.602c7.539-2.958,16.377-3.145,23.89-.025-7.874-1.75-16.004-1.572-23.89.025h0Z"/>
    <path class="cls-33" d="M375.749,532.348c1.475,6.142,4.398,11.816,8.67,16.48-5.279-3.644-8.592-10.08-8.67-16.48h0Z"/>
    <path class="cls-39" d="M274.788,158.606s-18.833,2.667-4,15c0,0-6.458-3.498-7.458-7.832,0,0-2.167-5.876,11.458-7.168Z"/>
    <path class="cls-39" d="M351.203,157.992s19.012,3.969,4,15.933c0,0,6.699-3.433,7.505-7.967,0,0,2.288-5.154-11.505-7.967Z"/>
    <path class="cls-39" d="M304.059,136.21s9.313-20.438,18.563,0c0,0-2.125-8.333-6.792-11.729,0,0-2.255-1.747-4.802,0,0,0-4.625,3.01-6.969,11.729Z"/>
    <path class="cls-71" d="M316.224,407.705l13.539,6.205,8.588,3.864-2.836,6.252,6.374-3.183,10.549,4.835,2.33,1.068s.946.028.001,3.294c0,0-.71-.016-.71,3.547l-15.375-6.5s-5.875,3.938-7.781-3.25l-8.812-6.027-2.873-4.461"/>
    <polygon class="cls-40" points="303.465 375.179 311.454 358.169 329.084 411.611 311.585 353.085 303.465 375.179"/>
    <path class="cls-40" d="M347.043,379.257s-4.109,21.985-7.797,29.164c-3.688,7.179,0,0,0,0l7.797-29.164Z"/>
    <polygon class="cls-40" points="270.004 349.659 278.783 398.3 271.335 348.278 270.004 349.659"/>
    <path class="cls-33" d="M363.349,242.94c-4.506,12.518-14.322,22.644-25.333,29.799-1.608.995-3.262,1.916-4.908,2.835,12.427-8.275,23.793-18.967,30.24-32.634h0Z"/>
    <path class="cls-33" d="M297.043,335.909c-5.921-1.901-19.656-6.121-21.403-12.592.244,1.041.867,1.938,1.588,2.699,5.438,4.978,13.131,6.957,20.066,8.925,0,0-.251.968-.251.968h0Z"/>
    <polygon class="cls-33" points="264.82 309.592 266.637 314.606 263.916 310.02 264.82 309.592 264.82 309.592"/>
    <path class="cls-33" d="M285.396,293.322c1.7,1.11,3.561,2.275,5.642,2.451-2.147.154-4.215-.725-6.153-1.591,0,0,.511-.859.511-.859h0Z"/>
    <path class="cls-33" d="M288.38,282.741c1.62,1.241,3.261,2.746,5.283,3.262-2.131-.201-4.012-1.446-5.865-2.448,0,0,.582-.814.582-.814h0Z"/>
    <path class="cls-33" d="M284.953,257.411c.342.155.177.101.341.213,1.736,1.379,3.748,2.36,5.868,3.024-1.145-.181-2.281-.461-3.391-.845-1.078-.376-2.143-.85-3.126-1.441-.022-.027-.125-.047.082.023l.226-.974h0Z"/>
    <path class="cls-33" d="M325.327,335.897c5.122-5.388,12.816-7.959,20.136-6.921-7.163-.698-14.638,2.12-19.366,7.559,0,0-.77-.638-.77-.638h0Z"/>
    <path class="cls-33" d="M377.855,372.25c-3.058-.415-9.219-1.199-9.855-4.861.159.97.889,1.693,1.686,2.159,2.47,1.373,5.444,1.616,8.209,1.703,0,0-.04.999-.04.999h0Z"/>
    <path class="cls-33" d="M212.833,425.122c2.544,1.22,5.655.046,7.931-1.338,0,0-.881.649-.881.649-2.184,1.45-4.903,2.546-7.531,1.566,0,0,.481-.877.481-.877h0Z"/>
    <polygon class="cls-43" points="272.629 348.848 271.986 349.253 271.766 347.865 272.397 347.289 272.629 348.848"/>
    <path class="cls-43" d="M350.182,360.971l.588.612.376-1.38s-.18-.185-.549-.753l-.416,1.522Z"/>
    <polygon class="cls-37" points="281.339 400.489 288.965 405.179 291.027 400.023 280.184 393.898 281.339 400.489"/>
    <polygon class="cls-43" points="279.492 399.673 280.256 400.049 279.492 394.967 278.713 394.73 279.492 399.673"/>
    <polygon class="cls-43" points="289.842 405.637 290.358 405.934 292.017 401.614 291.027 402.685 289.842 405.637"/>
    <polygon class="cls-37" points="278.118 378.928 295.457 388.628 293.494 393.577 278.547 381.783 278.118 378.928"/>
    <polygon class="cls-43" points="276.345 378.188 277.051 378.63 277.397 380.838 276.629 380.563 276.345 378.188"/>
    <polygon class="cls-43" points="296.359 389.011 296.836 389.341 295.902 391.718 295.462 391.351 296.359 389.011"/>
    <path class="cls-72" d="M251.111,364.224l4.635,2.58s-.822,1.212-.822,1.406l-5.626-3.986.887-.731.926.731Z"/>
    <polygon class="cls-43" points="328.609 406.532 329.716 407.705 331.199 412.648 330.033 411.326 328.609 406.532"/>
    <polygon class="cls-37" points="331.121 408.82 335.371 412.304 334.788 414.62 332.225 412.752 331.121 408.82"/>
    <polygon class="cls-43" points="337.756 410.054 336.415 412.244 335.515 415.69 337.009 412.947 337.756 410.054"/>
    <path class="cls-40" d="M330.656,430.838s1.527,1.279,2.777,1.435c0,0,2.648.25,4.668,2.688,0,0,2.835,2.469,5.38,3.5,0,0,2.171.812.921,3.406l5.469,1.094-.713-11.447-17.85-5.178-.893,2.779s.176-.024.241,1.724Z"/>
    <path class="cls-40" d="M328.691,424.666s.589.239.93,1.517l.794-1.139-1.724-.378Z"/>
    <path class="cls-40" d="M339.629,406.979s1.825,7.127,2.805,7.773l11.812,6.458.479,2.573-18.625-4.181,2.35-8.158,1.178-4.466Z"/>
    <path class="cls-72" d="M371.454,400.523s6.976-5.674,15.14-2.924l2.539,6.713-16.513-.539-1.167-3.25Z"/>
    <path class="cls-72" d="M379.809,428.523s9.759-4.684,22.342,10.462l-9.779-26.128-16.021,3.056,3.458,12.61Z"/>
    <path class="cls-72" d="M381.934,437.014s15.139.037,23.076,9.306l4.388,11.071-26.448-15.758-1.016-4.618Z"/>
    <path class="cls-72" d="M389.48,476.429s7.974,11.535,21.057,14.148c0,0,7.917,3.279,7.417,6.279,0,0-.795,1.701,3.455,2.04l4.233-1.874-9.188-22.25-29.62-14.396,2.646,16.052Z"/>
    <path class="cls-72" d="M390.975,486.523s10.188,15.897,23.312,15.5l-20.583,9.167-2.729-24.667Z"/>
    <g>
      <rect class="cls-51" x="260.067" y="301.605" width="12.25" height="159.25" transform="translate(-197.184 419.668) rotate(-59.817)"/>
      <rect class="cls-75" x="264.456" y="301.956" width="3.063" height="159.25" transform="translate(-197.589 419.666) rotate(-59.817)"/>
      <rect class="cls-26" x="268.082" y="296.995" width="1.583" height="159.25" transform="translate(-191.865 419.693) rotate(-59.817)"/>
      <rect class="cls-70" x="262.926" y="306.575" width=".75" height="159.25" transform="translate(-202.918 419.641) rotate(-59.817)"/>
      <path class="cls-56" d="M194.933,350.559l9.364-16.1s-6.795-1.494-9.4-3.479l-7.604,13.074s5.505,3.961,7.641,6.505Z"/>
      <path class="cls-31" d="M186.238,350.876l15.407-26.49s-8.387,4.641-12.132.969c0,0-4.86-3.594-6.25-7.684-.079-.231.042-.482.269-.573,1.717-.687,8.553-3.329,11.494-3.046,0,0-4.267-1.614-8.833-4.34-1.291-.771-2.84-.97-4.343-1.014-1.241-.036-2.867-.078-4.55-.107-3.109-.055-6.213.206-9.265.803-3.419.668-8.812,1.824-16.643,3.767,0,0-1.319.776-1.131,1.945,0,0,6.714,20.206,9.97,27.45.652,1.45,1.811,2.591,3.265,3.232,2.256.995,6.102,3.049,8.695,6.366,0,0-2.033-8.888-1.55-12.073.051-.339.384-.556.72-.491,2.187.428,9.942,2.039,10.884,3.565,1.346,2.182,3.422,6.714,2.736,9.882l1.257-2.161Z"/>
      <path class="cls-58" d="M164.366,346.189c-.86-1.153-6.013-8.88-8-26.334-.185-1.627.776-3.175,2.319-3.721,5.986-2.119,20.762-6.812,30.354-4.833l-2.968-1.659c-.822-.546-1.393-.539-1.639-.635-1.275-.493-8.035-.634-11.707-.267,0,0-8.855.342-21.332,4.419-.625.204-1.448,1.319-1.158,2.116.16.439.467,1.303.691,1.96,1.76,5.174,8.334,24.853,10.008,26.575.275.283.803.888,1.108,1.192.572.571,2.395,1.277,2.326,1.185Z"/>
      <path class="cls-53" d="M183.897,333.27s-9.468-11.194-9.449-17.691l-15.16,3.192,4.774,15.784s12.307-3.88,19.835-1.285Z"/>
      <path class="cls-32" d="M174.82,327.991s-2.867-6.632-2.694-8.918l-10.408,1.611,3.854,9.038s7.567-2.444,9.249-1.73Z"/>
      <path class="cls-35" d="M177.796,319.768l5.468-2.098s1.05,2.593,3.253,4.966c1.281,1.38,3.483,3.256,4.493,3.714,1.874.85,4.417.532,7.398-.551,0,0-12.844,10.199-20.612-6.032Z"/>
      <path class="cls-35" d="M184.482,347.857c.243-1.511,2-15.438-16.545-12.132l2.965,3.956s3.263.479,4.104.698c2.642.688,2.775.764,5.743,1.795.637.221,1.356.633,1.65,1.234,1.528,3.125,1.454,3.207,2.059,4.569.009.02.022-.099.025-.12Z"/>
      <rect class="cls-1" x="322.652" y="419.155" width="19.667" height="1.167" transform="translate(-197.507 496.122) rotate(-59.817)"/>
      <polygon class="cls-50" points="401.29 453.351 394.786 449.568 374.251 443.981 389.321 458.964 395.825 462.747 408.611 465.46 421.043 472.594 428.637 481.831 436.945 481.553 447.978 487.777 448.9 486.192 437.806 479.74 434.246 472.518 424.71 471.593 409.646 463.266 401.29 453.351"/>
      <path class="cls-44" d="M339.151,409.107l1.763,6.665,12.138,7.06s2.584,2.395,5.265-1.469l8.463-13.804s9.931-12.227,26.64-5.402l20.53,11.94s5.472,1.158,1.31-6.107c0,0-.482-5.51,5.803.507,0,0,24.193,21.638,27.58,38.936,0,0-2.078.093-3.935-2.433,0,0-19.664-23.873-38.918-16.128,0,0-3.139.922-5.548-4.384,0,0-11.734-14.633-22.085-7.278,0,0-13.727,12.911-1.571,19.981l10.265,5.97s7.268-1.557,8.974-.637l17.779,16.92,13.777,8.013,11.29-1.387,5.723,14.029s10.341,5.219,13.008,12.193c0,0-4.95,2.544-17.116-5.255l-14.875,1.832-4.458-10.112-14.101-8.201-22.143-6.805s-3.772-1.471-4.928-8.433l-10.157-5.907s-13.64-6.632-16.375,11.372c0,0-3.22,12.25,19.608,15.598,0,0,4.247.156,3.561,3.325,0,0,4.549,20.191,34.523,24.513,0,0,3.781,1.621,4.521,3.497,0,0-25.31,7.549-52.117-6.693,0,0-3.611-4.896,3.043-3.243,0,0,3.948-3.97-1.669-6.08l-18.873-10.977s-10.128-6.951-6.925-25.719l6.703-11.526s2.35-5.864-.262-7.672l-12.246-7.122-6.577,2.441,12.613-22.019Z"/>
      <path class="cls-73" d="M364.135,418.817s-9.44,10.045-15.804,7.934c0,0-4.863-.216-10.526-15.294l-11.267,19.669,6.577-2.441,6.306-2.803s14.921,7.413,8.72,20.436l15.994-27.5Z"/>
      <path class="cls-67" d="M347.547,481.713s42.378,6.427,29.089,18.172c0,0,21.522,8.535,31.566,3.884l2.739.451s4.342,1.899,4.521,3.497c0,0-26.112,7.105-52.117-6.693,0,0-3.48-4.976,3.043-3.243,0,0,3.985-3.888-1.669-6.08l-17.172-9.987Z"/>
      <path class="cls-47" d="M365.486,419.603s-5.419,13.42,5.168,22.317c0,0-13.259-3.308-21.413,5.614,0,0,4.288-10.231,1.778-16.608,0,0,9.731-3.306,14.467-11.324Z"/>
      <path class="cls-42" d="M360.833,428.971s2.007,8.484,3.338,9.179c0,0-6.536-.123-9.937,2.167,0,0,2.083-5.571.428-7.697,0,0,5.229-1.159,6.171-3.648Z"/>
      <path class="cls-42" d="M405.059,462.285s-5.247-5.896-5.977-9.116l-12.248-1.484,7.825,9.419s7.588-.118,10.4,1.18Z"/>
      <path class="cls-42" d="M432.567,473.416s2.642,6.563,4.089,6.892c0,0-4.969-.656-8.048-.085,0,0-1.603-3.294-4.925-6.865,0,0,7.358.857,8.884.058Z"/>
      <path class="cls-64" d="M399.811,501.683s-16.977,4.12-26.866-21.973l-15.986-6.229,16.534,2.977s3.693.297,2.925,3.248c0,0,3.614,15.085,23.393,21.977Z"/>
      <path class="cls-65" d="M371.55,450.532s-9.301-13.218-22.439.253c0,0-11.496,16.516,7.224,23.973,0,0,7.413,3.086,11.905.75,0,0-16.735-3.9-14.992-14.725,0,0,2.112-19.378,18.302-10.251Z"/>
      <path class="cls-48" d="M348.011,452.611s-8.521,16.263,12.372,23.353c0,0-28.928-4.683-12.372-23.353Z"/>
      <path class="cls-63" d="M348.276,482.137s52.401,14.132,14.13,16.88c0,0-.795-2.55,3.981-1.237,0,0,3.834-3.94-1.669-6.08l-16.442-9.563Z"/>
      <path class="cls-65" d="M378.098,438.073c.488.217-14.86-.183-10.883-17.464,0,0,6.528-14.207,17.554-10.541,0,0,11.908,3.021,18.549,14.476,0,0,.641,1.385,1.503.151,0,0,16.719-7.029,31.906,12.542,0,0-15.384-14.886-30.938-8.364,0,0-3.205.787-5.548-4.384,0,0-7.915-10.714-18.089-9.093,0,0-4.542.125-9.08,8.62,0,0-5.609,9.324,5.025,14.057Z"/>
      <path class="cls-29" d="M363.348,413.155s17.736-13.907,28.217-7.811l20.962,12.192s5.258,2.769,5.923-5.087c0,0,18.419,9.886,22.437,28.507l3.82,4.045s1.504,2.345,3.935,2.433c0,0-.27-10.703-21.545-33.059,0,0-7.561-8.55-10.645-8.68,0,0-1.251.117-1.193,2.296,0,0,4.323,6.78-1.31,6.107l-20.53-11.94s-14.84-7.137-26.64,5.402l-3.431,5.597Z"/>
      <polygon class="cls-59" points="350.729 421.48 347.498 427.036 341.069 423.297 337.695 417.972 340.451 414.02 340.914 415.772 350.729 421.48"/>
      <path class="cls-60" d="M337.805,411.457l2.177,6.359c.044.13.136.238.256.304l7.512,4.108c.168.092.379.044.49-.113l.841-1.185c.142-.2.08-.478-.133-.599l-8.034-4.559-1.763-6.665-1.346,2.35Z"/>
      <polygon class="cls-61" points="343.146 434.519 345.958 429.683 339.421 425.881 333.462 425.56 331.497 429.285 333.115 428.684 343.146 434.519"/>
      <rect class="cls-49" x="332.085" y="419.31" width="4.312" height="3.285" transform="translate(-197.684 498.244) rotate(-59.817)"/>
      <path class="cls-62" d="M345.208,444.346s8.592-7.8.751-14.663l-2.812,4.835,2.215,1.288s2.469,2.214-.153,8.539Z"/>
      <path class="cls-57" d="M359.321,419.724s1.099,8.899-11.824,7.312l3.231-5.556,1.567.911c.615.358,1.323.521,2.031.45,1.317-.132,3.399-.748,4.994-3.117Z"/>
      <path class="cls-45" d="M438.67,466.072s-3.132,3.023,1.442,12.19c0,0,3.099,5,11.826,6.958,0,0-5.889-4.735-7.546-5.119l-5.723-14.029Z"/>
      <path class="cls-45" d="M425.41,488.871s5.599-5.275,11.538-4.424c0,0,8.727,1.415,11.468,6.828,0,0-4.799-2.009-8.131-4.237l-14.875,1.832Z"/>
      <path class="cls-69" d="M438.67,466.072s-5.19,4.573-11.743,2.786c0,0-11.508-6.693-13.324-9.412l13.777,8.013,11.29-1.387Z"/>
      <path class="cls-69" d="M425.41,488.871s1.396-4.514-2.662-10.465c0,0-7.037-6.672-15.897-7.848l14.101,8.201,4.458,10.112Z"/>
      <path class="cls-28" d="M451.939,485.22s-.781.119-1.632.593c-1.294.721-2.753,2.264-1.889,5.462,0,0,5.711,2.296,8.985,1.018,0,0-.825-2.922-5.463-7.074Z"/>
      <path class="cls-63" d="M416.161,409.702s10.14,9.42.272,9.78c-4.864.177-5.709-.184-16.969-9.543,0,0,12.8,8.034,15.502,6.497,0,0,3.399-1.494,1.195-6.733Z"/>
    </g>
    <path class="cls-40" d="M234.09,299.742l4.688.812,1.281,12.938,8.344-11.312,4.094.906-.5,3.719-13.219,13.031-5.277-18.408s.464-.904.589-1.685Z"/>
    <path class="cls-18" d="M223.875,300.154s-3.494,18.536.991,24.22c2.995,3.795,2.787,12.799,1.651,19.266,0,0-12.991,12.11-11.45,14.642,0,0-.165,6.385,4.459,3.413,0,0-4.113,6.077,2.262,8.161,0,0,1.892,4.498,3.5,4.428,1.649-.072,3.472-3.603,4.667-4.849.339-.354.707.648,1.083.962l3.75,2.625c.826.821,3.002-.587,3.399-1.681.072-.198-2.758-2.237-2.858-2.277-1.406-.564-1.878-2.229-2.292-3.167-.827-1.876,4.296-7.258,5.782-7.588,0,0,6.226,4.824,6.44,3.055.599-4.954-16.255-12.22,6.254-31.816,4.562-3.972,6.379-23.339,6.379-23.339l-9.248-2.037-9.413,12.771-2.037-15.027-13.321-1.761Z"/>
    <polygon class="cls-21" points="223.305 303.821 233.095 304.88 237.443 325.103 249.691 309.002 257.338 310.785 257.893 306.209 248.645 304.173 239.233 316.943 237.196 301.916 223.875 300.154 223.305 303.821"/>
    <polygon class="cls-33" points="227.34 362.167 221.832 369.881 226.497 361.629 227.34 362.167 227.34 362.167"/>
    <path class="cls-37" d="M217.152,354.46s-2.281,7.75,3.062,6.125c0,0-2.031,1.844-3.406,1.281,0,0-1.235-.523-1.246-3.711,0,0-.773-.59,1.59-3.695Z"/>
    <path class="cls-37" d="M224.227,304.42s-1.96,9.603.644,19.124c0,0-3.042-3.708-1.126-19.177l.482.053Z"/>
    <polygon class="cls-43" points="224.289 303.42 224.73 300.773 224.293 300.708 223.884 303.374 224.289 303.42"/>
    <path class="cls-37" d="M255.913,310.981s-1.261,9.6-3.415,14.755c-.443,1.06-1.055,2.029-1.827,2.88-.726.799-1.846,1.883-3.443,3.053-1.064.78-1.992,1.737-2.721,2.836-.66.994-1.408,2.479-2.094,4.267,0,0,1.568-3.219,8.792-9.625,0,0,3.441-1.898,5.566-17.981l-.857-.186Z"/>
    <polygon class="cls-43" points="256.029 309.967 256.465 306.398 257.341 306.589 256.918 310.179 256.029 309.967"/>
    <path class="cls-37" d="M220.809,360.679s-4,6.25.719,8.562c0,0-5.836-1.592-.719-8.562Z"/>
    <path class="cls-37" d="M221.088,369.074l5.831-7.176-5.27,7.387s-.395-.133-.56-.211"/>
    <path class="cls-37" d="M222.692,369.355s1.41,7.019,6.867-.27c0,0-2.632,3.776-3.338,4.164,0,0-.871,1.176-1.753.059,0,0-.988-.835-2.094-3.376l.318-.576Z"/>
    <path class="cls-37" d="M233.059,367.21s-.521,2.309,4.542,4.227c0,0-.72-.694-2.501-1.926,0,0-1.305-.439-2.041-2.302Z"/>
    <path class="cls-37" d="M241.027,354.367s2.688,6.25,3.719,6.906c0,0,.746-.898-3.719-6.906Z"/>
    <path class="cls-37" d="M387.901,361.082s-2.618,11.823-5.337,14.541l2.683-.905,2.654-13.637Z"/>
    <path class="cls-37" d="M391.776,363.125s-2.068,8.7-4.235,10.742l2.083-.725,2.151-10.016Z"/>
  </g>
</svg>